<?xml version="1.0" encoding="utf-8"?>
<!-- Generator: Adobe Illustrator 13.0.1, SVG Export Plug-In . SVG Version: 6.00 Build 14948)  -->
<!DOCTYPE svg PUBLIC "-//W3C//DTD SVG 1.1//EN" "http://www.w3.org/Graphics/SVG/1.1/DTD/svg11.dtd" [
	<!ENTITY ns_flows "http://ns.adobe.com/Flows/1.0/">
	<!ENTITY ns_extend "http://ns.adobe.com/Extensibility/1.0/">
	<!ENTITY ns_ai "http://ns.adobe.com/AdobeIllustrator/10.0/">
	<!ENTITY ns_graphs "http://ns.adobe.com/Graphs/1.0/">
	<!ENTITY ns_vars "http://ns.adobe.com/Variables/1.0/">
	<!ENTITY ns_imrep "http://ns.adobe.com/ImageReplacement/1.0/">
	<!ENTITY ns_sfw "http://ns.adobe.com/SaveForWeb/1.0/">
	<!ENTITY ns_custom "http://ns.adobe.com/GenericCustomNamespace/1.0/">
	<!ENTITY ns_adobe_xpath "http://ns.adobe.com/XPath/1.0/">
]>
<svg version="1.1" id="Слой_1" xmlns:x="&ns_extend;" xmlns:i="&ns_ai;" xmlns:graph="&ns_graphs;"
	 xmlns="http://www.w3.org/2000/svg" xmlns:xlink="http://www.w3.org/1999/xlink" xmlns:a="http://ns.adobe.com/AdobeSVGViewerExtensions/3.0/"
	 x="0px" y="0px" width="480px" height="640px" viewBox="0 0 480 640" enable-background="new 0 0 480 640" xml:space="preserve">
<metadata>
	<sfw  xmlns="&ns_sfw;">
		<slices></slices>
		<sliceSourceBounds  x="-0.014" y="237.193" width="288.736" height="401.177" bottomLeftOrigin="true"></sliceSourceBounds>
	</sfw>
</metadata>
<polygon id="стрелка_в_меню_неактивная" fill-rule="evenodd" clip-rule="evenodd" fill="#AADDF5" points="
	9.488,1.636 5.539,5.586 1.583,1.63 0.876,2.337 5.539,7 10.195,2.343 "/>
<polygon id="стрелка_в_меню_наведение" fill-rule="evenodd" clip-rule="evenodd" fill="#FFFFFF" points="
	12.567,6.994 16.517,3.044 20.473,7 21.18,6.293 16.517,1.63 11.86,6.287 "/>
<polygon id="стрелка_в_меню_неактивная_1_" fill-rule="evenodd" clip-rule="evenodd" fill="#237BBB" points="
	31.309,1.636 27.359,5.586 23.403,1.63 22.696,2.337 27.359,7 32.016,2.343 "/>
<polygon id="стрелка_в_меню_наведение_1_" fill-rule="evenodd" clip-rule="evenodd" fill="#E20C19" points="
	34.388,6.994 38.337,3.044 42.293,7 43,6.293 38.337,1.63 33.681,6.287 "/>
<path id="логотип_на_главной" fill-rule="evenodd" clip-rule="evenodd" fill="#135FA7" d="M76.673,131.972v-6.913
	h-3.488l-0.018,0.27c-0.061,0.947-0.141,1.785-0.24,2.513c-0.1,0.727-0.223,1.332-0.367,1.814c-0.141,0.479-0.31,0.828-0.48,1.041
	c-0.17,0.206-0.315,0.273-0.498,0.277c-0.026,0-0.076-0.004-0.139-0.012c-0.059-0.009-0.099-0.019-0.116-0.024l-0.375-0.115v1.128
	l0.224,0.052c0.045,0.01,0.107,0.026,0.185,0.038c0.079,0.014,0.158,0.019,0.233,0.019h0.014c0.44,0,0.847-0.167,1.159-0.475
	c0.311-0.305,0.553-0.726,0.747-1.256c0.193-0.528,0.343-1.163,0.46-1.909c0.104-0.669,0.189-1.425,0.257-2.262h1.292v5.815H76.673z
	 M7.042,123.51c0.649,0,1.259,0.13,1.846,0.395l0.409,0.184v-1.304l-0.194-0.067c-0.653-0.228-1.339-0.344-2.05-0.344
	c-1.342-0.002-2.489,0.468-3.369,1.392c-0.888,0.926-1.325,2.167-1.324,3.658c-0.001,1.365,0.405,2.516,1.228,3.385
	c0.811,0.87,1.89,1.313,3.159,1.313h0.015c0.818,0,1.605-0.156,2.356-0.463l0.18-0.073v-1.253l-0.417,0.206
	c-0.604,0.298-1.287,0.447-2.067,0.448c-0.957-0.003-1.706-0.318-2.321-0.959c-0.604-0.637-0.917-1.504-0.918-2.66
	c0.002-1.203,0.329-2.122,0.968-2.818C5.186,123.855,5.994,123.514,7.042,123.51z M90.922,125.059v6.912h1.149v-3.027h3.157v3.027
	h1.15v-6.912h-1.15v2.786h-3.157v-2.786H90.922z M81.591,125.059v6.912h2.721c0.268,0,0.531-0.043,0.788-0.129
	c0.265-0.088,0.504-0.227,0.711-0.407c0.212-0.185,0.382-0.418,0.508-0.688c0.134-0.286,0.194-0.609,0.194-0.965
	c0-0.317-0.049-0.612-0.155-0.88c-0.105-0.263-0.261-0.495-0.462-0.682c-0.201-0.189-0.447-0.331-0.724-0.424
	c-0.278-0.094-0.583-0.14-0.909-0.14H82.74v-2.596H81.591z M84.145,128.753c0.226,0,0.413,0.031,0.554,0.084
	c0.155,0.058,0.277,0.132,0.365,0.217c0.093,0.088,0.158,0.187,0.206,0.312c0.045,0.123,0.069,0.26,0.069,0.416
	c0,0.162-0.022,0.312-0.066,0.448c-0.042,0.127-0.104,0.233-0.193,0.329c-0.084,0.091-0.194,0.166-0.347,0.226
	c-0.142,0.055-0.333,0.088-0.575,0.088H82.74v-2.119H84.145z M16.24,131.97v-5.813h1.899v-1.098H13.19v1.098h1.899v5.813H16.24z
	 M67.317,128.286c0-0.997-0.22-1.819-0.69-2.438c-0.471-0.626-1.189-0.947-2.042-0.942c-0.915-0.004-1.701,0.36-2.272,1.052
	c-0.571,0.686-0.858,1.541-0.857,2.518c0,1.111,0.263,2.014,0.824,2.667c0.548,0.644,1.306,0.979,2.184,0.979h0.014
	c0.863,0.001,1.663-0.252,2.363-0.753l0.122-0.086v-1.347l-0.468,0.362c-0.638,0.494-1.263,0.724-1.899,0.725
	c-0.632-0.004-1.077-0.207-1.43-0.629c-0.303-0.37-0.487-0.884-0.526-1.565h4.677V128.286z M62.705,127.731
	c0.108-0.533,0.307-0.931,0.586-1.215c0.34-0.345,0.737-0.509,1.269-0.512c0.505,0.005,0.846,0.165,1.121,0.498
	c0.233,0.286,0.387,0.691,0.441,1.229H62.705z M35.595,132.122c0.981,0,1.808-0.339,2.394-1.012
	c0.587-0.671,0.873-1.549,0.871-2.583c0.001-1.089-0.276-1.985-0.858-2.639c-0.578-0.655-1.392-0.985-2.354-0.982
	c-0.981-0.003-1.818,0.328-2.433,0.981c-0.626,0.656-0.926,1.564-0.924,2.665c-0.001,1.022,0.288,1.894,0.879,2.56
	c0.592,0.673,1.424,1.013,2.411,1.01H35.595z M33.465,128.563c0-0.847,0.207-1.466,0.592-1.902c0.389-0.438,0.882-0.652,1.564-0.656
	c0.689,0.004,1.166,0.211,1.519,0.621c0.35,0.412,0.545,1.029,0.545,1.889c0,0.836-0.195,1.446-0.551,1.873
	c-0.356,0.421-0.836,0.633-1.538,0.636c-0.686-0.003-1.174-0.218-1.553-0.652C33.664,129.928,33.466,129.344,33.465,128.563z
	 M22.185,125.059v9.824h1.149v-3.477c0.478,0.473,1.108,0.723,1.838,0.716c0.923,0.005,1.713-0.374,2.274-1.089
	c0.566-0.713,0.84-1.644,0.84-2.747c0-0.996-0.238-1.823-0.744-2.442c-0.503-0.625-1.238-0.942-2.107-0.938
	c-0.554,0-1.076,0.141-1.542,0.421c-0.207,0.123-0.395,0.271-0.56,0.441v-0.71H22.185z M23.874,126.639
	c0.349-0.421,0.813-0.63,1.488-0.635c0.546,0.005,0.931,0.188,1.257,0.589c0.317,0.4,0.491,0.958,0.492,1.705
	c-0.001,0.86-0.192,1.521-0.55,2.012c-0.366,0.492-0.78,0.707-1.341,0.712c-0.585-0.003-1.01-0.191-1.359-0.583
	c-0.353-0.407-0.526-0.87-0.527-1.444v-0.796C23.335,127.591,23.513,127.083,23.874,126.639z M55.967,131.97v-5.813h1.9v-1.098
	h-4.949v1.098h1.899v5.813H55.967z M43.321,125.059v6.912h0.837l3.545-4.706v4.706h1.149v-6.912h-0.893l-3.489,4.631v-4.631H43.321z
	 M92.258,63c2.792-1.513,5.935-2.27,9.461-2.27c2.323,0,4.571,0.341,6.722,1.013c2.152,0.682,3.985,1.619,5.509,2.823l0.309,5.316
	l0.256,0.245h1.46l0.224-0.245c0.415-4.603,0.863-7.49,1.343-8.651l-0.225-0.309c-1.811-0.82-4.069-1.512-6.765-2.098
	c-2.706-0.576-5.444-0.874-8.215-0.874c-4.783,0-9.098,0.884-12.934,2.643c-3.846,1.758-6.936,4.41-9.269,7.958
	c-2.344,3.548-3.516,7.692-3.516,12.434c0,6.893,2.344,12.465,7.042,16.737c4.688,4.262,10.793,6.393,18.304,6.393
	c5.242,0,10.174-1.171,14.798-3.526l1.183-2.898l-0.532-0.66c-1.045,0.756-2.132,1.385-3.261,1.907
	c-1.13,0.521-2.557,0.958-4.262,1.31c-1.704,0.352-3.483,0.533-5.338,0.533c-4.176,0-7.841-0.842-10.973-2.525
	c-3.132-1.694-5.604-4.102-7.404-7.245c-1.812-3.143-2.717-6.797-2.717-10.952c0-4.145,0.767-7.65,2.301-10.505
	C87.305,66.687,89.467,64.502,92.258,63z M189.073,125.059v6.912h0.837l3.545-4.707v4.707h1.148v-6.912h-0.892l-3.489,4.631v-4.631
	H189.073z M168.619,130.046c-0.004,0.58,0.207,1.101,0.613,1.488c0.409,0.397,0.97,0.588,1.619,0.588h0.009
	c0.523,0.001,1.013-0.147,1.443-0.432c0.167-0.112,0.319-0.239,0.456-0.382v0.662h1.148v-4.406c0.001-0.813-0.189-1.479-0.608-1.954
	c-0.415-0.474-1.021-0.707-1.73-0.704c-0.39,0-0.8,0.072-1.227,0.214c-0.424,0.137-0.772,0.307-1.045,0.522l-0.11,0.087v1.452
	l0.478-0.403c0.625-0.529,1.231-0.772,1.85-0.774c0.451,0.005,0.72,0.136,0.92,0.394c0.173,0.228,0.291,0.594,0.319,1.107
	l-1.693,0.254C169.539,127.971,168.601,128.785,168.619,130.046z M171.346,128.813l1.414-0.205v0.284
	c-0.002,0.657-0.183,1.157-0.532,1.553c-0.359,0.393-0.768,0.575-1.309,0.578c-0.395-0.001-0.652-0.103-0.841-0.284
	c-0.192-0.191-0.282-0.406-0.285-0.718c0.003-0.428,0.114-0.664,0.293-0.808C170.277,129.058,170.707,128.902,171.346,128.813
	l-0.042-0.286L171.346,128.813z M178.701,125.059v6.912h1.149v-3.027h3.156v3.027h1.149v-6.912h-1.149v2.786h-3.157l0.001-2.786
	H178.701z M199.958,129.802l-0.978,2.168h1.337l0.787-1.808c0.089-0.211,0.187-0.375,0.283-0.499
	c0.099-0.126,0.199-0.221,0.294-0.285c0.099-0.068,0.191-0.109,0.279-0.133c0.102-0.025,0.196-0.036,0.28-0.036h0.762v2.761h1.174
	v-6.912h-2.289c-0.417,0-0.781,0.053-1.095,0.173c-0.297,0.115-0.552,0.271-0.752,0.472c-0.192,0.195-0.335,0.425-0.424,0.673
	c-0.082,0.241-0.123,0.486-0.123,0.733c-0.002,0.513,0.143,0.97,0.441,1.323c0.172,0.203,0.393,0.356,0.651,0.463
	c-0.041,0.038-0.082,0.078-0.121,0.119C200.257,129.239,200.089,129.503,199.958,129.802z M200.987,126.396
	c0.177-0.16,0.474-0.265,0.938-0.265h1.077v1.979h-1.115c-0.196,0-0.372-0.021-0.523-0.062c-0.15-0.039-0.268-0.097-0.36-0.172
	c-0.095-0.074-0.162-0.162-0.216-0.285c-0.05-0.117-0.082-0.278-0.082-0.483C200.71,126.773,200.804,126.563,200.987,126.396z
	 M40.491,64.279c-0.202,0.384-1.172,1.865-2.919,4.443l-6.116,8.832l-7.809,11.271c-2.909,4.198-5.658,8.023-8.236,11.454
	c-1.811-0.042-3.366-0.17-4.656-0.374l-0.405,0.565c1.215,4.485,2.28,9.396,3.218,14.724l0.533,0.532h0.713l0.533-0.532
	c-0.106-4.347-0.16-6.819-0.16-7.426c0-1.833,0.139-2.983,0.405-3.452c0.277-0.469,0.703-0.789,1.3-0.959
	c0.596-0.181,2.258-0.287,5.007-0.33c2.749-0.043,6.616-0.064,11.613-0.064c1.225,0,3.835,0.021,7.831,0.064
	c3.995,0.043,6.446,0.106,7.34,0.203c0.895,0.096,1.513,0.255,1.843,0.5c0.331,0.234,0.575,0.607,0.735,1.108
	c0.149,0.5,0.234,1.587,0.234,3.271c0,0.607-0.054,3.036-0.16,7.276l0.532,0.501h0.746l0.5-0.501
	c0.917-5.199,1.982-10.11,3.218-14.734l-0.405-0.586c-0.799,0.117-2.333,0.245-4.624,0.373l-0.533-0.5
	c-0.085-7.33-0.128-14-0.128-20.008c0-9.823,0.042-16.77,0.128-20.85l-0.245-0.224c-4.869,0.171-7.831,0.256-8.864,0.256
	c-1.544,0-3.313-0.042-5.306-0.127c-2.227-0.085-3.462-0.128-3.718-0.128l-0.245,0.224v1.555l0.245,0.224
	c3.868,0.182,6.222,0.427,7.042,0.735c0.82,0.298,1.225,0.778,1.225,1.449c0,0.128-0.021,0.267-0.053,0.416
	C40.811,63.619,40.683,63.885,40.491,64.279z M43.751,62.883h0.842c0.149,7.096,0.224,12.774,0.224,17.047
	c0,6.637-0.075,13.307-0.224,20.008l-0.469,0.469c-3.164,0.118-6.989,0.181-11.485,0.181c-4.997,0-8.96-0.063-11.89-0.181
	l-0.437-0.469C23.999,93.609,31.808,81.262,43.751,62.883z M100.94,130.046c-0.003,0.58,0.208,1.101,0.614,1.488
	c0.409,0.397,0.969,0.588,1.619,0.588h0.009c0.524,0.001,1.014-0.147,1.443-0.432c0.167-0.111,0.319-0.239,0.456-0.381v0.661h1.149
	v-4.406c0-0.813-0.189-1.479-0.609-1.954c-0.414-0.474-1.021-0.707-1.729-0.704c-0.391,0-0.8,0.072-1.227,0.214
	c-0.424,0.137-0.773,0.307-1.045,0.522l-0.11,0.087v1.454l0.477-0.405c0.625-0.529,1.23-0.772,1.849-0.774
	c0.451,0.005,0.72,0.136,0.92,0.394c0.174,0.228,0.291,0.594,0.319,1.107l-1.693,0.254
	C101.86,127.971,100.922,128.785,100.94,130.046z M103.667,128.813l1.414-0.205v0.284c-0.002,0.658-0.182,1.157-0.532,1.553
	c-0.359,0.393-0.767,0.575-1.308,0.578c-0.395-0.001-0.652-0.103-0.842-0.284c-0.192-0.191-0.282-0.406-0.285-0.718
	c0.003-0.428,0.114-0.664,0.294-0.808C102.599,129.058,103.028,128.902,103.667,128.813l-0.042-0.286L103.667,128.813z
	 M142.961,97.818c-0.032,1.076-0.16,1.822-0.405,2.216c-0.234,0.394-0.629,0.671-1.172,0.842c-0.543,0.16-1.949,0.266-4.24,0.309
	l-0.256,0.277v1.502l0.256,0.245c4.305-0.16,6.786-0.245,7.458-0.245c1.48,0,3.25,0.053,5.306,0.16l2.003,0.085l0.277-0.277v-1.502
	l-0.256-0.245c-2.429-0.042-3.91-0.17-4.432-0.373c-0.512-0.213-0.885-0.522-1.087-0.938c-0.213-0.416-0.342-1.95-0.395-4.603
	c-0.054-2.653-0.074-4.997-0.074-7.042V66.41l14.915,30.992c0.757,1.609,1.716,3.75,2.877,6.435h1.215
	c2.023-4.975,4.378-10.281,7.084-15.917l10.771-22.533v22.906c-0.063,5.178-0.117,8.342-0.159,9.493
	c-0.043,1.14-0.171,1.907-0.405,2.291c-0.224,0.383-0.618,0.661-1.172,0.831c-0.543,0.16-1.971,0.277-4.262,0.341l-0.245,0.245
	v1.502l0.277,0.245c4.102-0.181,7.01-0.277,8.715-0.277c2.515,0,5.466,0.096,8.864,0.277l0.276-0.245v-1.535l-0.245-0.213
	c-2.439-0.064-3.92-0.192-4.432-0.394c-0.522-0.192-0.884-0.511-1.076-0.938c-0.202-0.426-0.33-1.95-0.395-4.571
	c-0.063-2.621-0.096-4.975-0.096-7.053V73.9c0.086-5.22,0.139-8.396,0.171-9.514c0.032-1.129,0.16-1.875,0.395-2.269
	c0.224-0.384,0.617-0.661,1.172-0.821c0.554-0.17,1.971-0.288,4.261-0.341l0.245-0.224v-1.523l-0.276-0.255
	c-2.376,0.107-4.433,0.16-6.18,0.16c-1.939,0-3.899-0.053-5.902-0.16c-1.001,2.642-2.94,6.968-5.838,12.987l-10.676,22.256
	l-11.826-24.292c-1.608-3.26-3.281-6.915-5.028-10.952c-1.705,0.107-3.708,0.16-5.988,0.16c-2.438,0-4.378-0.053-5.806-0.16
	l-0.288,0.288v1.491l0.256,0.256c2.43,0.032,3.91,0.16,4.433,0.373c0.521,0.203,0.873,0.522,1.076,0.948
	c0.191,0.426,0.319,2.003,0.372,4.709c0.054,2.717,0.075,5.029,0.075,6.915v14.298C143.046,93.535,142.993,96.731,142.961,97.818z
	 M127.537,125.059v6.912h1.148v-2.701l2.589,2.701h1.611l-3.45-3.528l3.356-3.383h-1.554l-2.553,2.627v-2.627H127.537z
	 M111.461,129.8l-0.979,2.17h1.338l0.787-1.808c0.091-0.211,0.187-0.375,0.283-0.499c0.1-0.126,0.2-0.221,0.294-0.285
	c0.099-0.068,0.192-0.109,0.279-0.133c0.102-0.025,0.196-0.036,0.28-0.036h0.761v2.761h1.175v-6.912h-2.288
	c-0.418,0-0.781,0.053-1.095,0.173c-0.298,0.115-0.552,0.271-0.752,0.472c-0.193,0.195-0.336,0.425-0.423,0.673
	c-0.083,0.241-0.125,0.486-0.125,0.733c-0.001,0.513,0.143,0.969,0.442,1.323c0.172,0.203,0.393,0.356,0.65,0.463
	c-0.041,0.038-0.081,0.078-0.121,0.119C111.76,129.241,111.592,129.503,111.461,129.8z M112.49,126.396
	c0.177-0.161,0.474-0.265,0.939-0.265h1.075v1.979h-1.113c-0.197,0-0.373-0.021-0.525-0.062c-0.149-0.039-0.266-0.097-0.36-0.173
	c-0.092-0.073-0.16-0.161-0.214-0.284c-0.051-0.117-0.082-0.278-0.082-0.483C112.213,126.773,112.308,126.563,112.49,126.396z
	 M139.364,132.122c0.981,0,1.809-0.339,2.394-1.012c0.588-0.671,0.873-1.549,0.871-2.583c0.002-1.089-0.275-1.985-0.857-2.639
	c-0.578-0.655-1.393-0.985-2.354-0.982c-0.981-0.003-1.817,0.328-2.433,0.981c-0.626,0.656-0.926,1.564-0.924,2.665
	c-0.002,1.022,0.287,1.895,0.879,2.56c0.592,0.673,1.423,1.013,2.41,1.01H139.364z M137.234,128.563
	c0.001-0.847,0.208-1.466,0.593-1.903c0.388-0.438,0.882-0.651,1.564-0.655c0.689,0.004,1.166,0.211,1.519,0.621
	c0.35,0.412,0.545,1.029,0.545,1.889c-0.001,0.836-0.195,1.446-0.552,1.873c-0.354,0.421-0.835,0.633-1.537,0.636
	c-0.688-0.003-1.174-0.218-1.555-0.652C137.434,129.928,137.236,129.344,137.234,128.563z M164.056,131.97v-6.912H158.6v6.912h1.149
	v-5.813h3.157v5.813H164.056z M152.961,125.059h-0.458l-1.872,4.589c-0.04,0.105-0.083,0.218-0.136,0.343
	c-0.015,0.037-0.029,0.074-0.044,0.109c-0.015-0.041-0.03-0.081-0.046-0.122c-0.054-0.137-0.103-0.258-0.153-0.368l-2.003-4.551
	h-0.428l-0.186-0.52v0.52h-0.546v6.912h1.125v-4.223l1.812,4.223h0.852l1.671-4.202v4.202h1.137v-6.912h-0.558v-0.447
	L152.961,125.059z M205.986,44.106L206,44.055l-0.014-0.004v-0.013h-0.047L159.5,31.29l-0.008-0.015l-0.01,0.007l-0.01-0.007
	l-0.003,0.006l-56.446-15.496h-0.04L46.505,31.29l-0.008-0.015l-0.01,0.007l-0.01-0.007l-0.012,0.021l-0.012,0.008L0.064,44.039
	h-0.078v8h102.542l0.044,0.042l0.042-0.042h0.745l0.042,0.042l0.044-0.042h102.542v-6.287l0.013-0.004l-0.013-0.022V44.106z
	 M1.986,50.039v-3.975l12.763,3.975H1.986z M16.986,48.692l-12.33-3.84l12.33-3.385V48.692z M18.986,40.917l21.848-5.998
	L18.986,48.983V40.917z M21.039,50.039l25.448-16.381l25.448,16.381H21.039z M73.986,48.983L48.759,32.744l25.228-6.925V48.983z
	 M75.986,50.039V27.326l24.394,22.713H75.986z M101.986,48.804l-25.44-23.688l25.44-6.984V48.804z M103.986,18.124l25.447,6.986
	l-25.447,23.694V18.124z M129.986,50.039h-24.394l24.394-22.713V50.039z M131.986,25.81l25.233,6.927L131.986,48.98V25.81z
	 M134.033,50.039l25.448-16.381l25.448,16.381H134.033z M186.986,41.039v7.948l-21.88-14.084l22.352,6.136H186.986z M188.986,41.458
	l12.876,3.535l-12.876,4.01V41.458z M203.986,50.039h-11.764l11.764-3.664V50.039z M-0.014,119.059h206v-2h-206V119.059z
	 M-0.014,138h206v-2h-206V138z"/>
<path id="логотип_на_внутренних" fill-rule="evenodd" clip-rule="evenodd" fill="#FFFFFF" d="M210.754,57.344
	c0.253,0,0.492,0.051,0.721,0.154l0.16,0.072v-0.51l-0.076-0.026c-0.255-0.089-0.522-0.134-0.8-0.134
	c-0.523-0.001-0.971,0.183-1.315,0.543c-0.346,0.361-0.517,0.846-0.517,1.428c0,0.533,0.158,0.982,0.479,1.322
	c0.316,0.339,0.738,0.513,1.233,0.513h0.006c0.319,0,0.626-0.062,0.919-0.181l0.07-0.029v-0.489l-0.163,0.081
	c-0.236,0.116-0.502,0.174-0.807,0.174c-0.373-0.001-0.666-0.124-0.906-0.374c-0.236-0.249-0.358-0.587-0.358-1.038
	c0-0.47,0.128-0.829,0.378-1.1C210.029,57.479,210.345,57.346,210.754,57.344z M239.852,57.948v2.698h1.063
	c0.104,0,0.207-0.017,0.307-0.051c0.104-0.034,0.197-0.088,0.277-0.158c0.084-0.072,0.15-0.163,0.199-0.269
	c0.053-0.112,0.076-0.238,0.076-0.376c0-0.124-0.02-0.239-0.061-0.344c-0.041-0.103-0.102-0.193-0.182-0.267
	c-0.078-0.073-0.174-0.129-0.281-0.165c-0.109-0.037-0.228-0.055-0.355-0.055H240.3v-1.014H239.852z M240.849,59.391
	c0.088,0,0.161,0.012,0.216,0.033c0.061,0.023,0.108,0.052,0.143,0.084c0.037,0.035,0.063,0.073,0.08,0.122
	c0.018,0.048,0.027,0.102,0.027,0.162c0,0.063-0.009,0.121-0.025,0.175c-0.018,0.05-0.041,0.091-0.076,0.128
	c-0.032,0.036-0.075,0.065-0.135,0.088c-0.055,0.021-0.13,0.034-0.225,0.034H240.3v-0.827H240.849z M243.494,57.948v2.698h0.447
	v-1.182h1.232v1.182h0.449v-2.698h-0.449v1.087h-1.232v-1.087H243.494z M221.898,60.706c0.383,0,0.706-0.133,0.935-0.396
	c0.229-0.262,0.341-0.604,0.34-1.008c0-0.425-0.107-0.775-0.335-1.03c-0.225-0.256-0.543-0.385-0.919-0.383
	c-0.383-0.001-0.709,0.128-0.949,0.383c-0.245,0.256-0.362,0.61-0.361,1.04c-0.001,0.398,0.112,0.739,0.343,0.999
	c0.231,0.263,0.556,0.396,0.94,0.395H221.898z M221.067,59.316c0-0.331,0.081-0.572,0.231-0.742
	c0.152-0.171,0.345-0.255,0.611-0.256c0.269,0.001,0.455,0.083,0.593,0.242c0.136,0.161,0.212,0.402,0.212,0.738
	c0,0.326-0.076,0.564-0.215,0.731c-0.139,0.164-0.326,0.247-0.6,0.249c-0.268-0.001-0.458-0.085-0.606-0.255
	C221.145,59.85,221.068,59.621,221.067,59.316z M216.664,57.948v3.835h0.449v-1.357c0.187,0.185,0.433,0.283,0.717,0.28
	c0.36,0.002,0.668-0.146,0.888-0.426c0.221-0.278,0.328-0.642,0.328-1.072c0-0.388-0.093-0.711-0.291-0.953
	c-0.196-0.244-0.483-0.368-0.822-0.366c-0.216,0-0.42,0.055-0.602,0.165c-0.081,0.048-0.154,0.105-0.219,0.172v-0.278H216.664z
	 M217.324,58.565c0.136-0.164,0.317-0.246,0.581-0.248c0.213,0.001,0.363,0.074,0.491,0.23c0.124,0.156,0.192,0.374,0.192,0.666
	c0,0.335-0.075,0.593-0.214,0.786c-0.143,0.192-0.304,0.275-0.523,0.278c-0.229-0.001-0.394-0.075-0.531-0.228
	c-0.138-0.158-0.205-0.339-0.206-0.563v-0.311C217.113,58.937,217.183,58.739,217.324,58.565z M229.85,60.646v-2.27h0.742v-0.429
	h-1.932v0.429h0.742v2.27H229.85z M214.344,60.646v-2.27h0.742v-0.429h-1.932v0.429h0.741v2.27H214.344z M237.933,60.646v-2.698
	h-1.362l-0.007,0.106c-0.023,0.37-0.055,0.697-0.094,0.98c-0.039,0.284-0.087,0.52-0.143,0.708
	c-0.055,0.187-0.121,0.323-0.188,0.406c-0.066,0.081-0.124,0.107-0.194,0.108c-0.01,0-0.03-0.001-0.055-0.004
	c-0.023-0.003-0.038-0.007-0.045-0.009l-0.146-0.045v0.44l0.088,0.02c0.017,0.004,0.042,0.01,0.072,0.015
	c0.031,0.005,0.062,0.007,0.091,0.007h0.005c0.172,0,0.331-0.065,0.453-0.185c0.121-0.119,0.216-0.284,0.292-0.491
	c0.075-0.206,0.134-0.453,0.18-0.745c0.041-0.261,0.074-0.556,0.1-0.883h0.504v2.27H237.933z M234.28,59.208
	c0-0.389-0.086-0.71-0.27-0.951c-0.184-0.245-0.464-0.37-0.797-0.368c-0.357-0.001-0.664,0.14-0.887,0.411
	c-0.223,0.268-0.335,0.602-0.334,0.983c0,0.433,0.103,0.786,0.322,1.041c0.214,0.252,0.51,0.383,0.853,0.383h0.005
	c0.336,0,0.649-0.099,0.922-0.294l0.047-0.034v-0.525l-0.183,0.141c-0.249,0.193-0.493,0.283-0.741,0.283
	c-0.247-0.001-0.42-0.081-0.558-0.246c-0.118-0.145-0.19-0.345-0.206-0.611h1.826V59.208z M232.48,58.992
	c0.042-0.208,0.12-0.364,0.229-0.474c0.133-0.135,0.288-0.199,0.496-0.2c0.197,0.001,0.33,0.064,0.438,0.194
	c0.091,0.112,0.151,0.27,0.172,0.479H232.48z M224.915,57.948v2.698h0.327l1.383-1.837v1.837h0.449v-2.698h-0.349l-1.362,1.808
	v-1.808H224.915z M223.81,34.225c-0.079,0.15-0.458,0.728-1.14,1.734l-2.387,3.447l-3.048,4.4c-1.136,1.638-2.208,3.131-3.215,4.47
	c-0.707-0.017-1.314-0.066-1.817-0.146l-0.158,0.221c0.474,1.751,0.89,3.668,1.256,5.747l0.208,0.208h0.278l0.208-0.208
	c-0.042-1.697-0.062-2.661-0.062-2.898c0-0.715,0.054-1.164,0.158-1.348c0.108-0.183,0.274-0.308,0.507-0.374
	c0.233-0.071,0.882-0.112,1.955-0.129s2.583-0.025,4.533-0.025c0.478,0,1.497,0.008,3.057,0.025
	c1.559,0.017,2.516,0.042,2.865,0.079c0.35,0.037,0.591,0.1,0.72,0.195c0.129,0.091,0.225,0.237,0.287,0.433
	c0.059,0.195,0.092,0.619,0.092,1.276c0,0.237-0.021,1.186-0.063,2.84l0.208,0.196h0.291l0.195-0.196
	c0.358-2.029,0.773-3.946,1.256-5.75l-0.158-0.229c-0.312,0.046-0.911,0.096-1.805,0.146l-0.208-0.195
	c-0.034-2.861-0.05-5.464-0.05-7.81c0-3.834,0.017-6.545,0.05-8.138l-0.096-0.088c-1.901,0.067-3.057,0.1-3.46,0.1
	c-0.603,0-1.293-0.017-2.071-0.05c-0.869-0.034-1.352-0.05-1.451-0.05l-0.096,0.088v0.606l0.096,0.087
	c1.509,0.071,2.428,0.167,2.749,0.287c0.32,0.117,0.478,0.304,0.478,0.566c0,0.05-0.008,0.104-0.021,0.162
	C223.934,33.968,223.884,34.071,223.81,34.225z M225.082,33.681h0.329c0.058,2.77,0.087,4.986,0.087,6.653
	c0,2.591-0.029,5.194-0.087,7.81l-0.183,0.183c-1.235,0.045-2.728,0.071-4.482,0.071c-1.951,0-3.498-0.025-4.641-0.071l-0.17-0.183
	C217.373,45.673,220.42,40.854,225.082,33.681z M286.053,59.8l-0.381,0.847h0.521l0.307-0.706c0.035-0.082,0.072-0.146,0.111-0.194
	c0.037-0.05,0.076-0.086,0.113-0.111c0.039-0.026,0.076-0.043,0.109-0.052c0.039-0.01,0.076-0.014,0.109-0.014h0.297v1.078h0.459
	v-2.698h-0.893c-0.164,0-0.307,0.021-0.428,0.067c-0.117,0.045-0.217,0.106-0.293,0.185c-0.076,0.077-0.133,0.166-0.166,0.263
	c-0.033,0.095-0.049,0.19-0.049,0.287c0,0.2,0.057,0.378,0.172,0.516c0.068,0.079,0.154,0.139,0.256,0.181
	c-0.018,0.015-0.033,0.031-0.049,0.047C286.17,59.581,286.104,59.684,286.053,59.8z M286.455,58.471
	c0.068-0.063,0.184-0.104,0.365-0.104h0.42v0.772h-0.434c-0.078,0-0.146-0.008-0.205-0.024c-0.059-0.015-0.104-0.038-0.141-0.067
	s-0.063-0.063-0.084-0.111c-0.02-0.046-0.033-0.108-0.033-0.189C286.346,58.618,286.383,58.536,286.455,58.471z M281.805,57.948
	v2.698h0.326l1.383-1.837v1.837h0.449v-2.698h-0.348l-1.363,1.808v-1.808H281.805z M247.404,59.896
	c-0.002,0.226,0.08,0.43,0.238,0.581c0.16,0.154,0.379,0.229,0.633,0.229h0.004c0.203,0,0.395-0.058,0.563-0.169
	c0.064-0.044,0.125-0.093,0.178-0.148v0.258h0.449v-1.72c0-0.317-0.074-0.578-0.238-0.763c-0.162-0.185-0.398-0.276-0.676-0.275
	c-0.152,0-0.311,0.028-0.479,0.083c-0.164,0.054-0.301,0.12-0.408,0.204l-0.043,0.034v0.567l0.188-0.158
	c0.244-0.207,0.48-0.302,0.721-0.302c0.178,0.001,0.281,0.053,0.359,0.154c0.068,0.089,0.113,0.231,0.125,0.432l-0.662,0.099
	C247.762,59.085,247.396,59.403,247.404,59.896z M249.02,59.334v0.111c0,0.256-0.07,0.451-0.207,0.605
	c-0.141,0.153-0.301,0.225-0.512,0.226c-0.152,0-0.254-0.041-0.328-0.111c-0.074-0.075-0.109-0.158-0.111-0.28
	c0.002-0.167,0.045-0.259,0.115-0.315c0.074-0.061,0.242-0.122,0.49-0.156L249.02,59.334z M244.016,33.726
	c1.088-0.59,2.316-0.886,3.691-0.886c0.906,0,1.785,0.133,2.625,0.395c0.84,0.267,1.555,0.632,2.15,1.103l0.119,2.075l0.1,0.095
	h0.57l0.088-0.095c0.162-1.797,0.336-2.924,0.523-3.377l-0.088-0.121c-0.707-0.32-1.588-0.59-2.641-0.819
	c-1.055-0.225-2.125-0.341-3.205-0.341c-1.867,0-3.553,0.346-5.049,1.032c-1.5,0.686-2.707,1.721-3.617,3.106
	c-0.915,1.385-1.372,3.003-1.372,4.854c0,2.69,0.915,4.865,2.749,6.532c1.828,1.664,4.211,2.495,7.143,2.495
	c2.047,0,3.973-0.457,5.777-1.376l0.461-1.131l-0.207-0.259c-0.408,0.296-0.832,0.541-1.273,0.745
	c-0.441,0.204-0.998,0.374-1.664,0.511c-0.664,0.137-1.359,0.208-2.082,0.208c-1.631,0-3.061-0.329-4.283-0.986
	c-1.223-0.661-2.188-1.601-2.891-2.827c-0.707-1.227-1.061-2.653-1.061-4.275c0-1.617,0.3-2.985,0.898-4.1
	C242.082,35.165,242.926,34.313,244.016,33.726z M277.756,57.948v2.698h0.447v-1.182h1.232v1.182h0.449v-2.698h-0.449v1.087h-1.232
	v-1.087H277.756z M263.805,47.316c-0.012,0.419-0.063,0.711-0.158,0.865c-0.092,0.154-0.244,0.262-0.457,0.329
	c-0.213,0.063-0.762,0.104-1.654,0.12l-0.1,0.108v0.586l0.1,0.096c1.68-0.062,2.648-0.096,2.91-0.096
	c0.578,0,1.268,0.021,2.07,0.062l0.783,0.034l0.107-0.108v-0.587l-0.1-0.096c-0.949-0.016-1.525-0.066-1.73-0.145
	c-0.199-0.083-0.346-0.204-0.424-0.366c-0.084-0.162-0.133-0.761-0.154-1.796c-0.02-1.036-0.029-1.95-0.029-2.749v-8.517
	l5.822,12.098c0.295,0.627,0.67,1.463,1.123,2.512h0.475c0.789-1.942,1.709-4.013,2.766-6.213l4.203-8.795v8.941
	c-0.023,2.021-0.045,3.256-0.063,3.705c-0.016,0.445-0.066,0.744-0.158,0.894c-0.086,0.149-0.24,0.258-0.457,0.325
	c-0.213,0.062-0.77,0.107-1.664,0.133l-0.096,0.096v0.586l0.109,0.096c1.602-0.07,2.736-0.108,3.402-0.108
	c0.98,0,2.133,0.038,3.459,0.108l0.107-0.096v-0.599l-0.096-0.083c-0.951-0.025-1.529-0.075-1.729-0.154
	c-0.205-0.075-0.346-0.2-0.42-0.366c-0.08-0.167-0.129-0.761-0.154-1.784c-0.025-1.023-0.037-1.942-0.037-2.753V37.98
	c0.033-2.038,0.053-3.277,0.066-3.713c0.012-0.441,0.063-0.732,0.154-0.886c0.086-0.149,0.24-0.258,0.457-0.32
	c0.215-0.066,0.77-0.112,1.662-0.133l0.096-0.087v-0.594l-0.107-0.1c-0.928,0.042-1.73,0.063-2.412,0.063
	c-0.756,0-1.521-0.021-2.303-0.063c-0.393,1.031-1.148,2.72-2.279,5.069l-4.168,8.688l-4.615-9.481
	c-0.629-1.272-1.281-2.699-1.963-4.275c-0.666,0.042-1.447,0.063-2.338,0.063c-0.951,0-1.709-0.021-2.266-0.063l-0.111,0.112v0.582
	l0.1,0.1c0.947,0.012,1.525,0.063,1.729,0.146c0.205,0.079,0.342,0.204,0.42,0.37c0.076,0.166,0.125,0.782,0.146,1.838
	c0.021,1.061,0.029,1.963,0.029,2.699v5.58C263.838,45.645,263.818,46.892,263.805,47.316z M257.785,57.948v2.698h0.447v-1.055
	l1.012,1.055h0.629l-1.348-1.377l1.311-1.321h-0.607l-0.996,1.025v-1.025H257.785z M273.82,59.896
	c-0.002,0.226,0.08,0.43,0.238,0.581c0.16,0.154,0.379,0.229,0.633,0.229h0.004c0.203,0,0.395-0.058,0.563-0.169
	c0.066-0.044,0.125-0.093,0.178-0.149v0.259h0.449v-1.72c0-0.317-0.074-0.578-0.238-0.763c-0.162-0.185-0.398-0.276-0.676-0.275
	c-0.152,0-0.311,0.028-0.479,0.083c-0.164,0.054-0.301,0.12-0.408,0.204l-0.043,0.034v0.567l0.188-0.157
	c0.244-0.207,0.48-0.302,0.721-0.302c0.178,0.001,0.281,0.053,0.359,0.154c0.068,0.089,0.115,0.231,0.125,0.432l-0.66,0.099
	C274.18,59.085,273.813,59.403,273.82,59.896z M274.885,59.414l0.551-0.08v0.111c0,0.256-0.07,0.451-0.207,0.605
	c-0.141,0.153-0.301,0.225-0.512,0.226c-0.152,0-0.254-0.041-0.328-0.111c-0.074-0.075-0.109-0.158-0.111-0.28
	c0.002-0.167,0.045-0.259,0.115-0.315c0.074-0.061,0.242-0.122,0.49-0.156l-0.016-0.111L274.885,59.414z M262.4,60.706
	c0.385,0,0.707-0.133,0.936-0.396c0.229-0.262,0.34-0.604,0.34-1.008c0-0.425-0.107-0.775-0.336-1.03
	c-0.225-0.256-0.543-0.385-0.918-0.383c-0.383-0.001-0.709,0.128-0.949,0.383c-0.244,0.256-0.361,0.61-0.361,1.04
	c0,0.398,0.111,0.739,0.344,0.999c0.23,0.263,0.555,0.396,0.939,0.395H262.4z M261.57,59.316c0-0.331,0.08-0.572,0.23-0.743
	c0.152-0.171,0.346-0.254,0.611-0.256c0.27,0.001,0.455,0.083,0.592,0.242c0.137,0.161,0.213,0.402,0.213,0.738
	c0,0.326-0.076,0.564-0.215,0.731c-0.139,0.164-0.326,0.247-0.6,0.249c-0.27-0.001-0.459-0.085-0.607-0.255
	C261.646,59.85,261.57,59.621,261.57,59.316z M251.51,59.8l-0.381,0.847h0.521l0.307-0.706c0.035-0.082,0.072-0.146,0.111-0.194
	c0.039-0.05,0.078-0.086,0.115-0.111c0.037-0.026,0.074-0.043,0.107-0.052c0.041-0.01,0.078-0.014,0.109-0.014h0.297v1.078h0.459
	v-2.698h-0.893c-0.164,0-0.305,0.021-0.428,0.067c-0.115,0.045-0.215,0.106-0.293,0.185c-0.076,0.077-0.131,0.166-0.166,0.263
	c-0.031,0.095-0.049,0.19-0.049,0.287c0,0.2,0.057,0.378,0.174,0.516c0.066,0.079,0.152,0.139,0.254,0.181
	c-0.016,0.015-0.031,0.031-0.047,0.047C251.627,59.581,251.561,59.684,251.51,59.8z M251.912,58.471
	c0.068-0.063,0.186-0.104,0.365-0.104h0.42v0.772h-0.434c-0.078,0-0.146-0.008-0.205-0.024c-0.059-0.015-0.104-0.038-0.141-0.067
	c-0.037-0.028-0.063-0.063-0.084-0.111c-0.02-0.046-0.031-0.108-0.031-0.189C251.803,58.618,251.84,58.536,251.912,58.471z
	 M272.039,60.646v-2.698h-2.129v2.698h0.447v-2.27h1.232v2.27H272.039z M267.709,57.948h-0.18l-0.73,1.792
	c-0.016,0.041-0.033,0.085-0.053,0.134c-0.006,0.014-0.012,0.028-0.018,0.042c-0.006-0.016-0.012-0.031-0.018-0.047
	c-0.021-0.053-0.041-0.1-0.061-0.144l-0.781-1.777h-0.168l-0.072-0.203v0.203h-0.213v2.698h0.439v-1.648l0.707,1.648h0.332
	l0.652-1.64v1.64h0.443v-2.698h-0.217v-0.174L267.709,57.948z M288.719,26.971l0.004-0.015l-0.004-0.001V26.95h-0.02l-18.126-4.977
	l-0.003-0.005l-0.005,0.003l-0.005-0.003l-0.001,0.002l-22.03-6.048l-0.008,0.029l-0.008-0.029l-22.044,6.052l-0.003-0.005
	l-0.004,0.002l-0.004-0.002l-0.005,0.008l-0.004,0.003l-18.107,4.971h-0.03v3.123h40.023l0.018,0.016l0.016-0.016h0.291l0.016,0.016
	l0.018-0.016h40.025v-2.455l0.004-0.001l-0.004-0.007V26.971z M209.093,29.292V27.74l4.983,1.552H209.093z M214.948,28.766
	l-4.813-1.499l4.813-1.321V28.766z M215.729,25.732l8.528-2.341l-8.528,5.489V25.732z M216.529,29.292l9.933-6.394l9.934,6.394
	H216.529z M237.196,28.88l-9.847-6.338l9.847-2.704V28.88z M237.977,29.292v-8.866l9.521,8.866H237.977z M248.125,28.811
	l-9.93-9.247l9.93-2.726V28.811z M248.904,16.835l9.933,2.727l-9.933,9.25V16.835z M259.053,29.292h-9.521l9.521-8.865V29.292z
	 M259.834,19.835l9.85,2.704l-9.85,6.34V19.835z M260.633,29.292l9.933-6.395l9.935,6.395H260.633z M281.303,25.779v3.104
	l-8.544-5.5l8.728,2.396H281.303z M282.082,25.943l5.026,1.379l-5.026,1.566V25.943z M287.938,29.292h-4.594l4.594-1.43V29.292z
	 M208,55.875h80.406v-0.78H208V55.875z M208,63h80.406v-0.78H208V63z"/>
<path id="конкуретные_цены" fill="#BBBABA" d="M70.125,183.557c0-2.384-1.517-4.413-3.638-5.177
	c0.898-0.985,1.486-2.335,1.512-3.845c0-3.037-2.462-5.5-5.498-5.5c-0.002-0.002-4.207-0.002-6,0c-0.024,0-0.057,0-0.083,0
	l-3.917-0.001c-3.039,0-5.5,2.463-5.5,5.5c0,1.568,0.659,2.979,1.712,3.98c-0.653,0.899-1.555,2.903-1.762,3.691
	c-0.905,3.438-3.479,7.097-10.607,8.441c-0.543,0.097-0.904,0.617-0.805,1.162c0.088,0.482,0.509,0.821,0.983,0.821
	c0.06,0,0.12-0.005,0.181-0.016c5.807-1.018,9.061-3.725,10.825-6.697c0.266,0.552,0.617,1.054,1.042,1.484
	c-2.054,0.797-3.511,2.786-3.511,5.123c0,1.609,0.695,3.052,1.795,4.057c-1.635,0.827-2.768,2.504-2.768,4.462
	c0,1.039,0.316,2.004,0.856,2.805c-4.703-0.284-10.197-0.951-15.229-2.52c-4.488-1.397-7.753-2-9.014-2.202
	c-0.022-0.059-0.047-0.123-0.073-0.195c-0.521-1.425-1.626-5.23-1.626-11.98c0-4.393,0.491-7.543,0.972-9.58
	c0.241-1.016,0.48-1.755,0.654-2.231c0.014-0.037,0.027-0.073,0.04-0.107h1.981c6.948-0.034,15.005-5.424,18.426-12.832
	c1.626-3.544,1.897-6.66,1.896-9.017c-0.002-1.141-0.06-2.108-0.06-2.833c-0.009-0.698,0.085-1.155,0.148-1.236
	c0.062-0.042-0.1-0.04,0.357-0.082c1.814,0.006,3.398,0.904,4.613,2.532c1.205,1.628,1.973,3.986,1.971,6.72
	c0.023,4.088-1.862,6.514-1.962,9.057c0,0,0.1,0.75,0.962,0.75c1.011,0,1.036-0.75,1.036-0.75c-0.1-1.347,1.941-4.444,1.963-9.057
	c-0.007-6.15-3.475-11.208-8.583-11.251c-0.828-0.04-1.742,0.377-2.11,1.12c-0.368,0.705-0.384,1.406-0.395,2.197
	c0,0.822,0.058,1.76,0.058,2.833c-0.002,2.206-0.241,4.963-1.713,8.183c-3.107,6.819-10.738,11.701-16.607,11.667H20
	c-0.377,0-0.726,0.214-0.894,0.551c-0.069,0.134-2.108,4.287-2.106,13.367c-0.002,9.292,2.037,13.396,2.109,13.535
	c0.15,0.294,0.436,0.495,0.764,0.54c0.005,0,0.877,0.109,2.488,0.444c1.61,0.334,3.933,0.889,6.757,1.768
	c6.704,2.081,14.023,2.624,19.42,2.766c0.188,0.021,0.372,0.057,0.566,0.057c0.067,0,0.125-0.026,0.188-0.038
	c1.281,0.026,2.439,0.032,3.434,0.032c0.595-0.002,1.131-0.002,1.606-0.002c3.193,0,5.574-0.713,7.211-1.929
	c1.639-1.209,2.456-2.953,2.445-4.691c0.003-0.627-0.082-1.154-0.216-1.59c2.423-0.574,4.226-2.752,4.226-5.352
	c0-1.442-0.436-2.801-1.304-3.828c-0.005-0.005-0.009-0.01-0.013-0.015C68.709,187.832,70.125,185.86,70.125,183.557z
	 M52.501,171.033h2.522v0.007c0.584,0,1.099-0.006,1.478-0.006h6c1.933,0.004,3.495,1.566,3.5,3.501
	c0.002,0.96-0.407,1.855-1.006,2.503c-0.597,0.652-1.368,1.006-1.933,0.995c-0.013,0-0.024,0.007-0.038,0.007
	c-0.008,0-0.015-0.004-0.023-0.004v-0.002H52.501c-1.935-0.005-3.497-1.566-3.501-3.5C49.004,172.602,50.566,171.037,52.501,171.033
	z M54.333,204.057c-0.476-0.002-1.012-0.002-1.606,0c-1.18,0-2.595-0.009-4.162-0.051c-1.407-0.257-2.472-1.48-2.477-2.961
	c0.005-1.667,1.351-3.016,3.017-3.02h7.144c0,0,0,0,0,0l5.433,0.001c0.126,0.18,0.287,0.557,0.31,1.408
	C61.968,201.62,60.179,203.982,54.333,204.057z M62.501,195.994l-0.085,0.003l-0.341,0.028H50.561
	c-1.933-0.004-3.498-1.569-3.502-3.5c0.004-1.934,1.569-3.496,3.502-3.5h1.743c0.059,0.002,0.116,0.009,0.174,0.009h10.501
	c0.06,0,0.111-0.024,0.167-0.034l0.102,0.004c1.711,0.134,2.7,1.476,2.753,3.489C65.996,194.428,64.434,195.99,62.501,195.994z
	 M64.625,187.056l-1.192-0.047c-0.142-0.012-0.286-0.017-0.432-0.017c-0.078,0-0.146,0.027-0.219,0.044h-4.336
	c-0.017-0.001-0.031-0.01-0.048-0.01h-6.015c-1.888-0.056-3.401-1.591-3.406-3.491c0.005-1.934,1.568-3.497,3.501-3.501h6.001
	c0.003,0,0.006-0.002,0.01-0.002h4.514c0.007,0,0.012-0.003,0.019-0.004c0.009,0,0.017,0.006,0.026,0.006l1.565,0.021
	c1.945,0.005,3.51,1.569,3.514,3.502C68.122,185.489,66.558,187.052,64.625,187.056z M17.843,201.462
	C17.52,200.658,16,196.285,16,185.619c0-4.677,0.51-7.996,1.011-10.127c0.25-1.064,0.498-1.833,0.68-2.328
	c0.18-0.493,0.281-0.675,0.275-0.677c0.156-0.31,0.144-0.68-0.038-0.976c-0.183-0.297-0.504-0.479-0.854-0.479H3.143
	c-0.37,0-0.711,0.205-0.882,0.531C2.185,171.7-0.002,175.903,0,185.119c0.002,13.003,2.011,17.166,2.105,17.36
	c0.168,0.341,0.515,0.555,0.896,0.555h14c0.343,0,0.664-0.178,0.846-0.47c0.183-0.292,0.204-0.658,0.054-0.967
	C17.9,201.598,17.888,201.576,17.843,201.462z M15.59,201.034H3.684C3.187,199.563,2,195.006,2,185.119
	c0-4.45,0.524-7.638,1.041-9.696c0.259-1.029,0.513-1.776,0.701-2.257c0.018-0.046,0.034-0.09,0.051-0.131h11.826
	c-0.648,1.979-1.621,6.04-1.619,12.584C14,194.218,14.968,198.907,15.59,201.034z"/>
<path id="доверие_клиентов" fill="#BBBABA" d="M141.927,166.78c-0.036-0.087-2.364-5.482-8.757-11.902
	c-5.864-5.886-10.774-7.745-10.875-7.782c-0.368-0.138-0.78-0.05-1.056,0.229l-7.063,7.091c-0.246,0.247-0.346,0.607-0.261,0.946
	c0.079,0.337,0.333,0.611,0.666,0.718c0,0,0.202,0.063,0.678,0.278c1.425,0.644,4.98,2.554,9.654,7.246
	c3.228,3.242,5.263,6.024,6.485,7.98c0.613,0.979,1.023,1.751,1.275,2.271c0.254,0.522,0.336,0.76,0.34,0.76
	c0.118,0.321,0.39,0.557,0.724,0.629c0.071,0.016,0.142,0.023,0.213,0.023c0.261,0,0.516-0.103,0.707-0.292l7.06-7.091
	C142.007,167.596,142.091,167.159,141.927,166.78z M134.251,172.544c-0.992-1.925-3.297-5.712-7.926-10.358
	c-4.36-4.379-7.849-6.48-9.697-7.396l5.543-5.565c0.056,0.026,0.115,0.054,0.178,0.084c1.531,0.733,5.195,2.76,9.406,6.987
	c3.085,3.097,5.18,5.938,6.497,7.993c0.658,1.029,1.124,1.861,1.421,2.431c0.048,0.091,0.09,0.174,0.13,0.25L134.251,172.544z
	 M80.062,175.27c0.083,0,0.166-0.01,0.249-0.032c0.342-0.089,0.612-0.352,0.71-0.694c0,0,0.072-0.255,0.297-0.806
	c0.678-1.653,2.655-5.664,7.397-10.425c3.261-3.275,5.959-5.082,7.815-6.067c0.928-0.493,1.644-0.781,2.119-0.942
	c0.236-0.082,0.413-0.131,0.521-0.16c0.111-0.029,0.132-0.029,0.132-0.031c0.368-0.066,0.667-0.33,0.778-0.686
	c0.11-0.356,0.017-0.746-0.247-1.01l-7.062-7.09c-0.232-0.233-0.561-0.336-0.883-0.276c-0.204,0.033-4.882,0.958-11.919,8.028
	c-7.251,7.273-7.932,11.726-7.961,11.971c-0.039,0.309,0.065,0.618,0.286,0.838l7.062,7.09
	C79.543,175.166,79.799,175.27,80.062,175.27z M81.382,156.496c3.395-3.409,6.165-5.285,8.056-6.305
	c0.944-0.511,1.671-0.806,2.148-0.973c0.066-0.023,0.127-0.044,0.183-0.063l5.504,5.526c-1.963,0.804-5.511,2.731-9.971,7.214
	c-4.543,4.56-6.701,8.515-7.617,10.577l-5.585-5.607C74.46,165.644,75.913,161.989,81.382,156.496z M129.617,180.256
	c0.834-1.875,1.542-4.084,1.798-5.387l0.018-0.19c-0.05-0.672-0.273-0.987-0.61-1.675c-1.03-1.9-3.4-5.302-6.772-8.688
	c-5.501-5.531-9.03-6.236-9.245-6.271l-0.363,0.004l-3.774,0.735c-0.787-0.349-1.608-0.646-2.454-0.88
	c-1.762-0.469-3.82-0.577-5.518-0.581c-1.853,0.002-3.263,0.139-3.284,0.141c-0.266,0.031-4.105,0.623-10.163,6.711
	c-6.247,6.265-6.615,9.784-6.632,10.085c-0.002,0.004-0.017,0.198-0.017,0.531c0,0.703,0.069,2.024,0.502,3.627
	c-0.008,0.008-0.02,0.01-0.028,0.019l-2.474,2.482c-1.015,1.016-1.525,2.36-1.523,3.694c-0.002,1.332,0.508,2.676,1.523,3.693
	c1.092,1.101,2.462,1.612,3.747,1.637c-0.212,0.605-0.324,1.241-0.325,1.878c-0.004,1.225,0.43,2.481,1.379,3.43
	c1.017,1.018,2.391,1.481,3.736,1.483c0.337-0.001,0.675-0.035,1.009-0.093c-0.066,0.306-0.115,0.624-0.116,0.966
	c-0.008,1.161,0.49,2.474,1.69,3.641c0.922,0.906,2.151,1.27,3.338,1.268c0.848-0.005,1.698-0.18,2.484-0.504
	c0.063,0.792,0.327,1.709,1.033,2.488c0.996,1.058,2.429,1.382,3.769,1.394c1.249-0.018,2.458-0.275,3.348-1.036l0.471-0.25
	c0.855,0.932,1.992,1.417,3.13,1.415h0.006c1.147,0.001,2.291-0.49,3.134-1.419c0.622-0.683,1.044-1.45,1.189-2.271
	c0.628,0.257,1.295,0.386,1.962,0.385h0.008c1.327,0,2.66-0.513,3.673-1.53c1.013-1.021,1.524-2.361,1.522-3.695
	c0-0.253-0.035-0.505-0.072-0.756c0.298,0.052,0.599,0.086,0.901,0.086h0.009c1.322,0,2.66-0.514,3.67-1.53
	c1.013-1.02,1.527-2.361,1.525-3.695c0.001-0.556-0.109-1.108-0.287-1.643c0.065,0.002,0.13,0.019,0.196,0.019h0.008
	c1.324,0,2.661-0.513,3.672-1.53c1.013-1.019,1.526-2.361,1.524-3.695c0.002-1.333-0.511-2.676-1.524-3.693L129.617,180.256z
	 M114.61,160.059c0.69,0.199,3.604,1.232,8.028,5.673c2.149,2.158,3.889,4.348,5.079,6.07c0.595,0.86,1.052,1.606,1.348,2.159
	c0.151,0.272,0.258,0.5,0.32,0.653c0.011,0.026,0.021,0.05,0.028,0.071c-0.206,0.952-0.721,2.582-1.317,4.042l-0.155-0.156
	c-1.018-1.017-2.354-1.53-3.682-1.53c-1.115,0-2.226,0.383-3.157,1.104c0.024-0.182,0.043-0.366,0.039-0.549
	c-0.033-2.156-1.19-5.067-2.621-10.937c-0.604-2.287-2.513-4.607-5.12-6.364L114.61,160.059z M84.609,174.414
	c0-0.022-0.002-0.022,0.009-0.068c0.08-0.459,0.78-3.465,6.044-8.752c2.908-2.919,5.213-4.46,6.759-5.269
	c0.772-0.403,1.355-0.622,1.73-0.742c0.187-0.058,0.323-0.091,0.403-0.11c0.08-0.019,0.08-0.014,0.08-0.016
	c-0.024,0.002,1.308-0.128,3.062-0.128c1.601-0.002,3.545,0.118,5.005,0.512c0.749,0.192,1.479,0.455,2.18,0.77
	c0.129,0.106,0.284,0.179,0.45,0.211c3.283,1.607,5.814,4.331,6.251,6.318c1.464,5.891,2.597,9.071,2.564,10.455
	c-0.022,0.571-0.097,0.685-0.317,0.908c-0.184,0.18-0.76,0.407-1.549,0.401c-2.744-0.029-7.286-2.271-7.634-8.686
	c-0.022-0.437-0.322-0.804-0.741-0.916c-0.086-0.022-0.174-0.034-0.257-0.034c-0.335,0-0.654,0.169-0.839,0.462
	c-1.205,1.983-5.141,3.871-8.99,3.835c-2.537-0.002-4.98-0.75-6.738-2.517c-0.391-0.391-1.021-0.393-1.412,0
	c-0.744,0.747-3.606,3.512-5.885,5.738c-0.156-0.879-0.188-1.587-0.188-1.996C84.596,174.525,84.611,174.414,84.609,174.414z
	 M106.135,197.943c-0.846,0.93-1.256,2.129-1.256,3.317c0,0.546,0.097,1.093,0.274,1.618l-0.498,0.263l-0.237,0.174
	c-0.208,0.252-1.129,0.595-2.073,0.577c-0.984,0.013-1.941-0.322-2.293-0.744c-0.393-0.431-0.526-0.983-0.527-1.542
	c0-0.321,0.049-0.625,0.101-0.838c0.026-0.106,0.056-0.188,0.07-0.228l0.004-0.014l-0.01-0.005l0.071-0.105l0.021-0.048
	c0.192-0.441,0.046-0.958-0.35-1.229c-0.396-0.271-0.93-0.223-1.269,0.119c-0.736,0.748-1.997,1.261-3.103,1.251
	c-0.8,0-1.476-0.238-1.939-0.695c-0.887-0.885-1.083-1.583-1.092-2.208c-0.002-0.616,0.247-1.218,0.538-1.694
	c0.144-0.236,0.292-0.437,0.414-0.591c0.062-0.079,0.115-0.143,0.165-0.205c0.058-0.083,0.076-0.069,0.208-0.311
	c0.237-0.501,0.027-1.099-0.472-1.336c-0.391-0.189-0.833-0.084-1.124,0.208c-0.03,0.024-0.066,0.035-0.093,0.063l-0.002-0.002
	c-0.625,0.635-1.574,0.992-2.523,0.99c-0.896,0-1.748-0.314-2.324-0.895c-0.539-0.545-0.792-1.242-0.794-2.012
	c-0.004-0.909,0.38-1.888,1.061-2.588l0.151-0.113c0.428-0.326,0.526-0.938,0.215-1.38c-0.313-0.442-0.918-0.556-1.37-0.256
	c-0.415,0.279-0.994,0.458-1.611,0.458c-0.825-0.004-1.704-0.303-2.454-1.053c-0.627-0.631-0.937-1.451-0.938-2.275
	c0.002-0.829,0.311-1.647,0.938-2.276l1.362-1.367c0.036-0.028,0.079-0.043,0.111-0.077h-0.002c1.112-1.162,5.927-5.806,7.92-7.758
	c2.131,1.743,4.811,2.438,7.414,2.437c3.475-0.028,6.892-1.177,9.117-3.043c1.245,5.895,6.02,8.406,9.345,8.381
	c0.767-0.005,1.479-0.135,2.103-0.425c-0.208,0.576-0.328,1.178-0.327,1.782c-0.001,0.556,0.109,1.109,0.286,1.644
	c-0.065-0.002-0.13-0.019-0.196-0.019c-1.328-0.002-2.666,0.51-3.678,1.53l-0.001-0.001c-1.015,1.016-1.525,2.36-1.523,3.694
	c0,0.254,0.035,0.507,0.072,0.759c-0.298-0.053-0.6-0.086-0.901-0.086c-1.328-0.003-2.667,0.51-3.681,1.529l0.001,0.001
	c-1.014,1.015-1.525,2.359-1.523,3.692c-0.001,0.64,0.123,1.28,0.357,1.888C107.501,196.956,106.715,197.29,106.135,197.943
	L106.135,197.943z M110.959,203.254c-0.482,0.526-1.072,0.764-1.665,0.766c-0.592-0.002-1.183-0.242-1.665-0.768l-0.007-0.008
	c-0.495-0.542-0.749-1.256-0.749-1.983c0-0.729,0.254-1.442,0.734-1.966l-0.735-0.677l0.738,0.675
	c0.297-0.313,0.548-0.401,0.917-0.413c0.618-0.019,1.559,0.471,2.261,1.187l0.193,0.194c0.539,0.609,0.712,1.083,0.712,1.48
	C111.695,202.147,111.516,202.633,110.959,203.254z M117.854,199.772c-0.628,0.628-1.443,0.941-2.268,0.943
	c-0.824-0.002-1.641-0.314-2.265-0.943l-0.864-0.868c-0.008-0.008-0.013-0.017-0.021-0.025l-0.006-0.007
	c-0.144-0.155-0.296-0.305-0.454-0.449l-1.13-1.134c-0.628-0.632-0.937-1.45-0.939-2.277c0.002-0.828,0.311-1.646,0.939-2.274
	l-0.706-0.709l0.706,0.707c0.63-0.63,1.443-0.941,2.268-0.943c0.822,0.002,1.638,0.313,2.269,0.945l2.472,2.482
	c0.627,0.631,0.937,1.447,0.938,2.274C118.792,198.321,118.48,199.14,117.854,199.772z M123.885,193.877
	c-0.628,0.627-1.443,0.94-2.266,0.942c-0.825-0.002-1.642-0.314-2.268-0.944l-2.472-2.482c-0.628-0.633-0.938-1.451-0.938-2.277
	c0-0.829,0.311-1.647,0.938-2.274l-0.706-0.709l0.706,0.706c0.63-0.63,1.442-0.94,2.267-0.942c0.823,0.002,1.638,0.313,2.269,0.945
	l2.47,2.481c0.631,0.63,0.939,1.449,0.942,2.275C124.824,192.424,124.514,193.243,123.885,193.877z M128.998,187.026
	c-0.627,0.628-1.442,0.941-2.266,0.943c-0.825-0.002-1.641-0.314-2.266-0.943l-2.474-2.483c-0.628-0.632-0.938-1.451-0.939-2.276
	c0.002-0.829,0.312-1.648,0.939-2.276c0.63-0.63,1.442-0.941,2.267-0.943c0.823,0.002,1.638,0.313,2.268,0.943l2.472,2.483
	c0.628,0.631,0.936,1.447,0.94,2.274C129.935,185.573,129.627,186.392,128.998,187.026z"/>
<path id="отвечаем_за_качество" fill="#BBBABA" d="M204.279,172.484c-0.612-1.523-1.493-2.62-2.481-3.388
	l2.049-2.272c0.562-0.366,1.969-1.978,4.406-4.231c2.741-2.57,5.656-5.891,5.713-9.59c0-2.349-0.511-3.864-1.348-4.825
	c-0.837-0.962-1.921-1.188-2.595-1.177c-0.485,0-0.807,0.093-0.872,0.111l-0.36,0.196c-0.007,0.006-2.587,2.208-5.762,4.85
	c-0.078-0.681-0.225-1.433-0.536-2.169c-0.498-1.266-1.759-2.539-3.647-2.507c-1.075-0.009-1.871,0.632-2.473,1.303
	c-0.636,0.689-1.28,1.544-2.315,2.587c-0.53,0.535-1.093,1.123-1.67,1.733c-0.089-0.194-0.193-0.39-0.327-0.586
	c-0.663-0.997-2.003-1.794-3.952-1.772c-0.827,0.028-1.319,0.504-1.755,0.986c-1.463,1.724-2.934,5.336-4.952,9.272
	c-1.982,3.918-4.431,8.05-7.311,10.413c-0.04,0.033-0.061,0.078-0.094,0.115c-1.349,0.787-2.277,1.326-2.511,1.46
	c-0.797,0.321-7.099,2.309-8.535,2.905c-0.167,0.07-0.318,0.19-0.425,0.336c-1.864,2.617-2.515,8.312-2.536,12.896
	c0.006,5.57,1.701,12.366,3.005,13.689c0.17,0.168,0.39,0.266,0.628,0.285c8.892,0.613,24.032,3.913,31.063,3.928
	c3.641-0.033,6.744-2.546,9.016-4.912c2.268-2.386,3.698-4.735,3.72-4.771l0.042-0.071c0.023-0.072,0.771-1.481,0.785-3.186
	c0.004-0.477-0.066-1.005-0.26-1.515c1.848-0.238,3.047-0.957,3.746-1.776c0.861-1.006,0.923-2.001,0.93-2.129
	c0.007-0.173-0.027-0.338-0.102-0.491C212.558,188.165,206.244,177.293,204.279,172.484z M195.47,152.798
	c1.123-1.133,1.838-2.074,2.363-2.637c0.561-0.582,0.728-0.652,1.013-0.66c1.031,0.032,1.407,0.458,1.811,1.291
	c0.363,0.825,0.46,1.974,0.457,2.702c0,0.095-0.002,0.176-0.004,0.254c-3.423,2.823-7.083,5.762-8.692,6.815
	c-1.465,0.962-5.26,3.233-9.214,5.569C187.309,161.745,191.968,156.32,195.47,152.798z M184.021,160.242
	c1.082-2.203,2.016-4.21,2.803-5.614c0.392-0.699,0.755-1.25,1.032-1.568c0.138-0.158,0.252-0.256,0.309-0.29
	c0.002-0.002,0.005-0.004,0.007-0.005c1.439,0.034,1.93,0.478,2.246,0.902c0.269,0.377,0.35,0.858,0.368,1.152
	c-2.969,3.22-6.279,6.979-9.217,10.113C182.462,163.352,183.277,161.75,184.021,160.242z M206.575,190.645
	c-0.124,0.004-0.248,0-0.373-0.016c-0.441-0.239-0.91-0.4-1.386-0.493c-1.283-0.743-2.569-2.226-3.651-3.986
	c-1.592-2.541-2.742-4.4-3.361-5.668c-0.218-0.443-0.719-0.661-1.188-0.517c-1.488,0.458-4.292,0.446-6.802,1.893
	c-2.459,1.458-4.865,3.33-4.943,6.139c0.036,5.049,4.437,8.251,8.483,8.253c1.555,0.002,3.116-0.482,4.344-1.57
	c1.266-1.156,3.988-2.667,5.993-2.631c0.172,0.001,0.338,0.011,0.496,0.029c0.402,0.195,0.822,0.347,1.263,0.446
	c0.111,0.075,0.218,0.158,0.321,0.252c0.341,0.317,0.475,0.735,0.481,1.316c0.002,0.524-0.139,1.117-0.289,1.561
	c-0.125,0.375-0.242,0.621-0.274,0.691c-0.096,0.152-0.405,0.634-0.899,1.319c-1.783,2.549-6.14,7.449-10.103,7.35
	c-6.458,0.015-21.398-3.181-30.529-3.893c-0.371-0.458-2.172-6.467-2.167-11.99c-0.02-4.083,0.637-9.443,1.989-11.476
	c2.002-0.826,8.312-2.813,8.32-2.817l0.127-0.062c0.004-0.003,1.806-1.05,4.367-2.546c0.049-0.025,0.1-0.042,0.146-0.076
	c0.013-0.01,0.028-0.023,0.041-0.033c5.409-3.161,14.016-8.221,16.526-9.868c1.785-1.175,5.514-4.174,8.984-7.038
	c0.156-0.073,0.288-0.181,0.389-0.322c3.255-2.692,6.209-5.2,6.998-5.87c0.043-0.005,0.093-0.008,0.146-0.008
	c0.327,0.011,0.716,0.072,1.099,0.499c0.385,0.432,0.843,1.413,0.843,3.488c0.057,2.499-2.417,5.703-5.062,8.105
	c-1.308,1.208-1.628,2.237-2.616,2.958c-0.986,0.722-1.627,1.129-1.627,1.129l-0.207,0.175l-2.441,2.707
	c-1.03-0.41-2.075-0.562-2.993-0.547c-0.948,0-1.785,0.146-2.44,0.34c-1.629,0.485-9.812,2.509-9.82,2.513
	c-0.537,0.131-0.864,0.677-0.732,1.22c0.13,0.54,0.672,0.872,1.21,0.738c0.013-0.004,8.146-2.016,9.91-2.537
	c0.463-0.139,1.137-0.259,1.873-0.259c1.935,0.04,4.141,0.677,5.411,3.71c1.816,4.441,7.284,13.647,8.184,15.491
	C210.466,189.24,210.055,190.559,206.575,190.645z M201.8,190.278c-2.173,0.528-4.172,1.799-5.422,2.886
	c-0.813,0.718-1.864,1.066-3.024,1.068c-1.519,0.004-3.18-0.625-4.419-1.729c-1.239-1.106-2.061-2.627-2.064-4.507
	c-0.077-1.351,1.599-3.073,3.939-4.388c1.896-1.097,4.083-0.949,5.566-1.45c0.644,1.421,1.703,2.84,3.098,5.069
	C200.16,188.302,200.926,189.374,201.8,190.278z M158.973,187.995c0-8.588,2.82-12.963,2.726-13.334c0,0-0.241-0.625-0.754-0.625
	l-12.833-0.047v0.047c-0.247,0-0.489,0.046-0.673,0.215c-0.205,0.173-3.439,3.27-3.439,13.641c0,13.817,3.353,16.536,3.427,16.649
	c0.182,0.295,0.502,0.473,0.845,0.473c0,0,11.431,0,12.025,0s1.966-0.296,1.037-2.266
	C160.503,200.985,158.973,196.169,158.973,187.995z M149.131,202.999c-0.339,0-3.131-3.084-3.131-15.075
	c0-8.802,2.52-11.92,2.977-11.92h9.988c-0.745,0.956-1.992,6.121-1.992,11.991c0,7.26,1.105,12.787,2.076,15.004H149.131z"/>
<path id="соблюдаем_сроки" fill="#BBBABA" d="M286,182.5c0-2.385-1.513-4.414-3.631-5.177
	c0.897-0.985,1.484-2.336,1.51-3.846c0-3.039-2.457-5.5-5.49-5.5c0-0.002-4.12-0.002-6.249,0c-2.022-1.297-4.301-2.229-6.75-2.681
	c0.325-0.532,0.522-1.151,0.522-1.82c0-0.373-0.073-0.725-0.182-1.062c4.65-0.01,7.234-3.121,7.257-5.696
	c0-0.67-0.19-1.356-0.665-1.891c-0.473-0.542-1.211-0.837-1.978-0.829c-0.276,0.037-1.805-0.465-3.556-1.002
	c-1.793-0.531-3.988-1.082-6.254-1.084c-0.702,0-1.409,0.056-2.113,0.183c-1.742,0.41-4.338,1.899-6.938,3.744
	c-2.579,1.86-5.02,3.973-6.105,5.905c-2.346,4.26-4.829,6.841-6.703,8.36c-0.937,0.758-1.722,1.248-2.262,1.547
	c-0.271,0.15-0.479,0.25-0.614,0.31c-0.137,0.062-0.178,0.074-0.178,0.076c-0.239,0.088-0.436,0.262-0.55,0.492
	c-0.067,0.133-2.103,4.287-2.101,13.366c-0.002,9.291,2.031,13.396,2.104,13.536c0.149,0.295,0.436,0.495,0.763,0.539
	c0.002,0,0.876,0.11,2.483,0.444s3.927,0.889,6.748,1.769c8.633,2.688,17.792,2.813,22.905,2.817
	c0.585-0.002,1.117-0.002,1.588-0.002c3.706-0.002,6.244-0.697,7.934-1.922c1.7-1.222,2.397-3.019,2.381-4.699
	c0.001-0.625-0.083-1.153-0.216-1.59c2.419-0.575,4.217-2.752,4.217-5.35c0-1.445-0.436-2.803-1.301-3.83
	c-0.004-0.004-0.008-0.009-0.012-0.014C284.588,186.775,286,184.803,286,182.5z M277.392,169.977L277.392,169.977
	c0.601,0,0.997,0,0.997,0c1.931,0.002,3.492,1.566,3.494,3.5c0.002,0.959-0.405,1.854-1.003,2.504
	c-0.587,0.643-1.346,0.995-1.906,0.996h-0.022c-0.012,0-0.021,0.006-0.033,0.007c-0.01,0-0.019-0.006-0.028-0.006v-0.002h-1.498
	c-1.929-0.004-3.491-1.566-3.495-3.499C273.9,171.543,275.463,169.981,277.392,169.977z M245.663,200.273
	c-4.479-1.398-7.738-2.001-8.999-2.203c-0.021-0.059-0.046-0.123-0.072-0.195c-0.521-1.422-1.624-5.23-1.624-11.98
	c0-4.391,0.488-7.542,0.97-9.577c0.241-1.018,0.48-1.758,0.654-2.235c0.051-0.139,0.095-0.252,0.131-0.343
	c1.421-0.666,6.193-3.371,10.404-11.029c0.719-1.354,3.064-3.508,5.517-5.243c2.429-1.754,5.104-3.195,6.171-3.411
	c0.532-0.095,1.123-0.142,1.721-0.142c1.939-0.001,3.966,0.49,5.687,1.002c1.763,0.506,3.034,1.047,4.123,1.084
	c0.573,0.072,0.553,0.101,0.646,0.719c-0.007,1.227-1.54,3.692-5.261,3.696c-0.756,0-1.608-0.11-2.551-0.349
	c-0.025-0.005-0.049-0.014-0.074-0.02c-0.162-0.042-0.32-0.079-0.488-0.129c-0.242-0.072-0.486-0.039-0.699,0.06h-0.497
	c-1.931,0.002-3.494,1.566-3.494,3.5c0,0.675,0.2,1.3,0.53,1.834c-8.815,1.635-15.497,9.364-15.497,18.669
	c0,9.26,6.616,16.964,15.369,18.65C254.337,202.279,249.908,201.598,245.663,200.273z M263.917,163.477
	c-0.003,0.828-0.673,1.499-1.499,1.501h-0.997c-0.829-0.002-1.496-0.673-1.498-1.501c0.002-0.828,0.669-1.497,1.498-1.499h0.997
	c0.094,0,0.185,0.012,0.274,0.028c0.039,0.01,0.08,0.022,0.119,0.031C263.445,162.212,263.914,162.786,263.917,163.477z
	 M267.976,203c-1.364,0-3.021-0.012-4.864-0.078c1.728-0.106,3.394-0.438,4.966-0.978c0.043,0.214,0.09,0.431,0.157,0.649
	c0.035,0.131,0.082,0.268,0.138,0.406C268.239,203,268.114,203,267.976,203z M267.901,199.879c-1.858,0.702-3.864,1.104-5.974,1.104
	c-9.373-0.017-16.955-7.612-16.972-17.003c0.017-9.39,7.599-16.986,16.972-17.002c3.17,0,6.124,0.874,8.659,2.384
	c0.151,0.361,0.506,0.615,0.921,0.615v-0.002h0.021c0.373,0.257,0.733,0.528,1.084,0.813c-0.351,0.625-0.577,1.325-0.661,2.071
	c-2.654-2.412-6.178-3.883-10.044-3.884c-8.261,0-14.955,6.708-14.957,14.983c0.002,8.274,6.696,14.979,14.957,14.981
	c2.44,0,4.739-0.604,6.776-1.646C268.206,198.045,267.922,198.928,267.901,199.879z M261.907,196.941
	c-7.157-0.015-12.946-5.813-12.958-12.981c0.012-7.17,5.801-12.971,12.958-12.983c5.191-0.002,9.661,3.062,11.729,7.475
	c-1.079,1.004-1.758,2.434-1.758,4.026c0,1.66,0.738,3.145,1.899,4.153c-1.713,0.931-2.876,2.747-2.876,4.837
	c0,0.551,0.083,1.082,0.233,1.583C268.781,195.448,265.526,196.941,261.907,196.941z M272.221,195.038
	c-0.095,0.013-0.195,0.011-0.288,0.029c0.06-0.054,0.113-0.115,0.172-0.169C272.143,194.945,272.182,194.992,272.221,195.038z
	 M276.323,201.459c-1.002,0.737-2.698,1.334-5.319,1.494c-0.008,0-0.014-0.004-0.021-0.004c-0.376,0-0.57-0.2-0.842-0.95
	c-0.107-0.337-0.169-0.726-0.205-1.082c0.102-0.242,0.112-0.522,0-0.783c-0.012-0.026-0.034-0.043-0.047-0.068
	c0-0.023-0.002-0.059-0.002-0.079c0.004-1.665,1.35-3.014,3.013-3.017h3.351c0.01,0,0.019-0.005,0.028-0.006
	c0.039,0.001,0.076,0.006,0.114,0.006h1.181c0.126,0.179,0.287,0.557,0.309,1.408C277.863,199.576,277.489,200.59,276.323,201.459z
	 M278.389,194.938l-0.08,0.002l-0.396,0.033c0,0-0.001,0-0.002,0c-0.007,0-0.013-0.004-0.021-0.004h-1.497
	c-1.93-0.004-3.49-1.568-3.494-3.501c0.004-1.933,1.564-3.496,3.494-3.5h0.823c0.052,0.001,0.103,0.008,0.154,0.008h1.496
	c0.058,0,0.107-0.023,0.163-0.033l0.107,0.004c1.709,0.135,2.695,1.476,2.746,3.49C281.881,193.369,280.319,194.934,278.389,194.938
	z M280.51,185.999l-1.191-0.046c-0.142-0.012-0.285-0.016-0.431-0.016c-0.073,0-0.138,0.026-0.206,0.041h-1.237
	c-0.019-0.001-0.034-0.011-0.053-0.011h-0.126c-1.881-0.06-3.387-1.593-3.39-3.49c0.003-1.933,1.563-3.497,3.494-3.501h1.52
	c0.009,0,0.016-0.005,0.024-0.005s0.016,0.005,0.023,0.005l1.561,0.023c1.943,0.002,3.504,1.565,3.508,3.5
	C284.002,184.432,282.441,185.995,280.51,185.999z M233.811,200.404c-0.321-0.805-1.838-5.176-1.838-15.844
	c0-4.678,0.509-7.996,1.008-10.126c0.252-1.064,0.499-1.833,0.679-2.327c0.181-0.494,0.28-0.676,0.276-0.678
	c0.157-0.309,0.143-0.678-0.039-0.975s-0.503-0.478-0.851-0.478h-13.907c-0.37,0-0.709,0.203-0.881,0.53
	c-0.076,0.135-2.258,4.338-2.258,13.554c0.002,13.003,2.008,17.167,2.103,17.361c0.167,0.34,0.515,0.555,0.893,0.555h13.976
	c0.343,0,0.664-0.179,0.846-0.47c0.183-0.292,0.203-0.658,0.052-0.969C233.868,200.539,233.857,200.52,233.811,200.404z
	 M231.563,199.977h-11.885c-0.497-1.471-1.683-6.028-1.681-15.915c0-4.451,0.525-7.638,1.038-9.697
	c0.258-1.028,0.514-1.776,0.699-2.257c0.019-0.047,0.035-0.09,0.052-0.131h11.806c-0.646,1.979-1.617,6.04-1.616,12.584
	C229.977,193.158,230.942,197.848,231.563,199.977z M271.367,179.758c-0.27-0.48-0.878-0.652-1.359-0.383l-7.093,3.979v-10.209
	c0-0.552-0.447-1-0.999-1c-0.553,0-0.997,0.448-0.997,1h-0.002v11.916c0,0.354,0.189,0.684,0.493,0.863
	c0.156,0.091,0.33,0.137,0.505,0.137c0.169,0,0.337-0.043,0.489-0.127l8.579-4.814C271.463,180.85,271.635,180.24,271.367,179.758z"
	/>
<path id="наведение__x28_открыть_в_новом_окне_x29_" fill-rule="evenodd" clip-rule="evenodd" fill="#FFFFFF" d="
	M74,230H28v21.107c0.652-0.383,1.323-0.738,2-1.082V232h42v34H30v-8.463c-0.684,0.401-1.352,0.825-2,1.275V268h46V230z M22,215
	v40.477c0.649-0.575,1.315-1.129,2-1.659V226h54v69H24v-32.861c-0.704,0.698-1.366,1.439-2,2.209V297h58v-82H22z M78,224H24v-7h54
	V224z M56,314H2v-69.008h18.015v-2H2V236h18.002L20,234H0v82h58v-17h-2V314z M37.492,222.026c0.836,0,1.514-0.678,1.514-1.514
	c0-0.835-0.678-1.513-1.514-1.513c-0.835,0-1.513,0.678-1.513,1.513C35.979,221.349,36.657,222.026,37.492,222.026z M32.493,222.026
	c0.836,0,1.514-0.678,1.514-1.514c0-0.835-0.678-1.513-1.514-1.513c-0.835,0-1.513,0.678-1.513,1.513
	C30.979,221.349,31.657,222.026,32.493,222.026z M27.493,222.026c0.836,0,1.514-0.678,1.514-1.514c0-0.835-0.678-1.513-1.514-1.513
	c-0.835,0-1.513,0.678-1.513,1.513C25.979,221.349,26.657,222.026,27.493,222.026z M74,274H28v2h46V274z M74,279H28v2h46V279z
	 M74,284H28v2h46V284z M28,291h46v-2H28V291z M13.963,239.506c0,0.836,0.678,1.513,1.513,1.513c0.836,0,1.513-0.677,1.513-1.513
	s-0.677-1.514-1.513-1.514C14.641,237.992,13.963,238.67,13.963,239.506z M8.963,239.506c0,0.836,0.678,1.513,1.513,1.513
	c0.836,0,1.513-0.677,1.513-1.513s-0.677-1.514-1.513-1.514C9.641,237.992,8.963,238.67,8.963,239.506z M3.963,239.506
	c0,0.836,0.677,1.513,1.513,1.513s1.514-0.677,1.514-1.513s-0.678-1.514-1.514-1.514S3.963,238.67,3.963,239.506z M12.824,270.75
	c0.67,0.449,1.076,0.636,1.762,0.929c5.969-12.578,18.651-21.333,33.414-21.688V250h4.288l-5.393,5.393l1.414,1.414l6.364-6.363
	l0.002,0.002l1.415-1.414l-7.778-7.778l-1.414,1.414L52.23,248h-3.224c-0.016-0.015-0.031-0.044-0.049-0.044
	C33.022,247.956,19.263,257.27,12.824,270.75z"/>
<path id="наведение__x28_увеличить_x29_" fill-rule="evenodd" clip-rule="evenodd" fill="#FFFFFF" d="
	M149.442,288.057c5.315-6.534,8.507-14.864,8.507-23.943c0-20.973-17.001-37.975-37.975-37.975
	C99.002,226.139,82,243.141,82,264.113s17.002,37.975,37.975,37.975c9.617,0,18.393-3.583,25.083-9.478l13.39,13.39l1.414-1.414
	l-0.004-0.005l1.641-1.641l0.005,0.005l1.414-1.415L149.442,288.057z M158.442,303.167l-11.916-11.916
	c0.003-0.003,0.007-0.006,0.01-0.009l-1.356-1.357c-6.502,6.361-15.396,10.287-25.211,10.287c-19.918,0-36.064-16.146-36.064-36.064
	c0-19.917,16.146-36.064,36.064-36.064s36.064,16.147,36.064,36.064c0,9.275-3.504,17.731-9.258,24.121l1.352,1.369
	c0.004-0.005,0.008-0.01,0.013-0.015l11.943,11.944L158.442,303.167z M119.947,230.043c-18.802,0-34.043,15.242-34.043,34.044
	s15.242,34.043,34.043,34.043s34.043-15.241,34.043-34.043S138.749,230.043,119.947,230.043z M119.989,296.172
	c-17.697,0-32.044-14.347-32.044-32.043c0-17.698,14.347-32.044,32.044-32.044s32.043,14.346,32.043,32.044
	C152.032,281.825,137.686,296.172,119.989,296.172z M120.99,248.103h-2v15h-15v2h15v15h2v-15h15v-2h-15V248.103z"/>
<polygon id="стрелка_неактивная_левая" fill-rule="evenodd" clip-rule="evenodd" fill="#237BBB" points="
	18.005,326.414 16.59,325 1.417,340.117 1.415,340.114 0,341.528 1.415,342.941 1.418,342.939 16.59,358.027 18.005,356.613 
	2.835,341.527 "/>
<polygon id="стрелка_наведение_левая" fill-rule="evenodd" clip-rule="evenodd" fill="#E20C19" points="
	38.005,326.414 36.59,325 21.417,340.117 21.415,340.114 20,341.528 21.415,342.941 21.418,342.939 36.59,358.027 38.005,356.613 
	22.835,341.527 "/>
<polygon id="стрелка_неактивная_правая" fill-rule="evenodd" clip-rule="evenodd" fill="#237BBB" points="
	59.995,356.614 61.41,358.028 76.583,342.911 76.585,342.914 78,341.5 76.585,340.087 76.582,340.089 61.41,325.001 59.995,326.415 
	75.165,341.501 "/>
<polygon id="стрелка_наведение_правая" fill-rule="evenodd" clip-rule="evenodd" fill="#E20C19" points="
	39.995,356.614 41.41,358.028 56.583,342.911 56.585,342.914 58,341.5 56.585,340.087 56.582,340.089 41.41,325.001 39.995,326.415 
	55.165,341.501 "/>
<path id="фпд_лого" fill="#5C5B5B" d="M12.271,379.994c-0.495,0.265-0.911,0.934-0.911,1.551v4.296h1.488v-3.762
	c0-0.461,0.112-0.789,0.617-0.946c0.295-0.092,1.196,0.031,1.199-1.454C13.773,379.582,12.763,379.734,12.271,379.994z
	 M36.548,384.501c-0.426-0.14-0.532-0.465-0.532-0.93v-2.608h1.552v-1.394h-1.552v-2.095l-1.489,0.06v6.572
	c0,0.67,0.416,1.286,0.912,1.549c0.491,0.263,1.038,0.417,2.241,0.191l-0.153-1.333C37.102,384.582,36.959,384.637,36.548,384.501z
	 M8.826,379.993c-0.332-0.158-1.668-0.465-3.417,0.152c0.112,0.694,0.571,1.193,1.318,1.086c0.282-0.04,0.567-0.087,0.844-0.087
	c0.393,0,0.664,0.068,0.821,0.184c0.3,0.221,0.293,0.393,0.293,0.862c-0.385,0-0.751-0.021-1.107-0.021
	c-1.112,0-1.646,0.333-1.849,0.457c-0.248,0.154-0.447,0.355-0.59,0.6c-0.152,0.257-0.24,0.46-0.24,0.808
	c0,0.351,0.032,0.685,0.165,0.945c0.128,0.252,0.309,0.46,0.535,0.619c0.225,0.155,0.501,0.269,0.818,0.341
	c0.282,0.062,0.65,0.094,1.088,0.094c0.533,0,2.018-0.126,2.576-0.234v-3.559C10.082,380.592,9.179,380.163,8.826,379.993z
	 M8.686,384.627c-0.903,0.182-1.659,0.172-2.071-0.014c-0.23-0.121-0.349-0.234-0.337-0.599c0.013-0.388,0.348-0.553,0.688-0.627
	c0.244-0.053,0.421-0.069,0.797-0.069c0.318,0,0.574,0.011,0.924,0.023V384.627z M2.065,378.953h1.972
	c0.927,0,1.356-0.943,1.356-1.521H1.623c-0.955,0-1.623,0.404-1.623,1.445v6.961h1.531v-3.512h2.772v-1.453H1.531v-1.421
	C1.531,379.147,1.701,378.953,2.065,378.953z M31.025,382.04c-0.485-0.208-0.463-0.418-0.463-0.488c0-0.303,0.263-0.442,0.5-0.474
	c0.192-0.024,0.638,0.096,0.827,0.146c1.265,0.331,1.398-0.586,1.507-0.994c-0.667-0.204-1.438-0.485-2.084-0.485
	c-0.746,0-1.212,0.16-1.637,0.495c-0.431,0.335-0.645,0.787-0.645,1.363c0,0.295,0.013,1.047,0.953,1.456
	c0.227,0.098,0.468,0.213,0.741,0.313c0.285,0.11,0.632,0.224,0.874,0.343c0.199,0.095,0.275,0.263,0.275,0.4
	c0,0.181-0.101,0.322-0.231,0.385c-0.133,0.062-0.442,0.08-0.764,0.08c-0.305,0-0.61-0.062-0.922-0.129
	c-0.311-0.064-0.614-0.155-0.911-0.271l-0.289,1.412c0.141,0.06,0.39,0.138,0.752,0.231c0.361,0.094,0.814,0.178,1.359,0.178
	c0.831,0,1.477-0.076,1.932-0.387c0.455-0.313,0.682-0.771,0.682-1.376c0-0.256-0.06-0.871-0.659-1.336
	C32.229,382.447,31.428,382.213,31.025,382.04z M27.219,380.333c-0.268-0.28-0.594-0.504-0.967-0.663
	c-0.374-0.156-0.792-0.236-1.242-0.236c-0.444,0-0.858,0.08-1.232,0.236c-0.374,0.159-0.699,0.383-0.973,0.663
	c-0.271,0.283-0.486,0.632-0.643,1.035c-0.152,0.402-0.23,0.855-0.23,1.349c0,0.491,0.075,0.946,0.227,1.353
	c0.148,0.407,0.361,0.758,0.629,1.047c0.267,0.287,0.592,0.512,0.969,0.671c0.373,0.158,0.795,0.237,1.254,0.237
	c0.465,0,0.893-0.079,1.266-0.237c0.375-0.159,0.7-0.384,0.966-0.671c0.269-0.288,0.477-0.64,0.618-1.047
	c0.143-0.404,0.216-0.858,0.216-1.353c0-0.493-0.078-0.945-0.228-1.349C27.696,380.965,27.485,380.616,27.219,380.333z
	 M26.063,384.076c-0.244,0.343-0.6,0.518-1.053,0.518c-0.454,0-0.812-0.175-1.06-0.518c-0.247-0.334-0.372-0.792-0.372-1.359
	c0-0.568,0.125-1.022,0.372-1.354c0.248-0.331,0.606-0.499,1.06-0.499s0.808,0.168,1.053,0.501c0.241,0.329,0.364,0.783,0.364,1.352
	C26.427,383.284,26.304,383.739,26.063,384.076z M18.958,377.428H17.65c-1.013,0-1.838,0.715-1.838,1.727v6.685h1.473v-2.879h1.583
	c1.458-0.003,2.536-1.439,2.536-2.788v-0.1C21.404,378.726,20.309,377.428,18.958,377.428z M19.909,380.257
	c-0.036,0.681-0.538,1.295-1.229,1.275h-1.395v-2.154c0-0.29,0.186-0.513,0.518-0.513h0.877c0.71,0.013,1.124,0.406,1.213,1.006
	l0.017,0.256V380.257z M65.461,381.911c1.962-2.037,3.658-4.459,4.265-6.955c0.219-0.922,0.289-1.843,0.193-2.763
	c-0.048-0.389-0.121-0.702-0.193-1.018c-0.581-2.085-1.987-2.835-3.126-3.077c-0.363-0.194-0.728-0.338-1.139-0.486
	c-0.679-0.241-1.431-0.387-2.255-0.482c-5.475-0.631-11.267,1.114-15.604,3.439c-5.283,2.859-8.457,6.615-6.349,8.144
	c0.29,0.218,0.315-0.098,0.34,0.024c0.073,0.314,0.362,0.676,1.018,0.58c0.582-0.097,0.872-0.363,1.138-0.604
	c-0.63,0.169-1.235-0.098,0.341-1.939c0.944-0.944,2.156-1.891,3.513-2.787c1.964-1.284,4.191-2.472,6.445-3.344
	c-1.938,1.817-4.385,5.065-6.445,8.481c-3.658,6.032-6.131,12.576-2.665,12.6c0.849,0,1.744-0.071,2.665-0.218
	c3.732-0.58,8.117-2.302,12.648-5.186c1.504-0.969,3.297-2.398,4.92-4.12C65.267,382.104,65.363,382.008,65.461,381.911z
	 M69.726,371.708c0.097,0.461,0.12,0.946,0.12,1.405c0,0.412-0.048,0.825-0.12,1.261c-0.098,0.557-0.268,1.139-0.533,1.721
	c0.122-0.29,0.194-0.582,0.266-0.848c0.147-0.582,0.243-1.139,0.268-1.673v-0.751c-0.098-1.696-0.824-3.055-2.059-4.022
	C68.901,369.382,69.484,370.498,69.726,371.708z M47.602,373.622c-0.872,0.608-1.672,1.236-2.374,1.916
	c0.727-0.704,1.526-1.382,2.374-2.013c2.569-1.865,5.573-3.295,7.996-4.095c1.746-0.461,4.169-0.969,6.252-0.727
	c-1.6-0.072-3.489,0.218-5.477,0.774c-0.193-0.022-0.459-0.048-0.775-0.048c-0.266,0.146-0.531,0.338-0.799,0.558
	C52.303,370.835,49.758,372.096,47.602,373.622z M46.656,390.197c-0.654-0.098-0.266-1.793,0.945-4.313
	c0.364-0.728,0.774-1.527,1.285-2.397c-0.485,0.896-0.921,1.769-1.285,2.567c-0.921,2.012-1.406,3.636-0.921,4.144
	C46.656,390.197,46.656,390.197,46.656,390.197z M47.602,390.222c-0.193,0.024-0.388,0.024-0.557,0.024
	c-0.17-0.073-0.268-0.194-0.291-0.363c-0.12-0.704,0.218-1.866,0.848-3.296c1.745-3.9,5.816-9.861,9.474-14.223
	c0.195-0.195,0.509-0.607,0.681-0.341c0.533-1.089,0.241-1.404-0.438-1.358c-0.073-0.41-0.096-0.796-0.461-1.018
	c2.618-0.75,5.041-1.016,6.689-0.508c0.799,0.339,1.454,0.849,1.914,1.624c0.34,0.581,0.58,1.284,0.654,2.157
	c0.097,0.97-0.122,2.084-0.654,3.271c-0.558,1.333-1.455,2.763-2.689,4.265C57.706,386.709,50.945,389.979,47.602,390.222z
	 M131.274,377.452c-0.098,0.097,0-0.122-0.411-0.169c0.022,0.169,0,0.41-0.195,0.556c0.17-0.509-0.122-0.58-0.339-0.556
	c-0.145,0.022-0.291,0.096-0.436,0.169c-3.441,5.452-8.99,8.287-11.85,9.305c-2.183,0.773-3.345,0.582-3.345-1.283v-1.648
	c0-0.316-0.169-1.043-0.436-1.139c-0.122-0.05-0.192-0.268-0.314-0.486c-0.146-0.313-0.39-0.653-0.825-0.822
	c-0.339-0.146-0.774-0.171-1.404,0.024c-1.987,0.556-4.483,2.954-5.889,4.433c1.236-2.278,2.689-3.756,4.191-5.453
	c0.509-0.579,0.389-1.307-0.315-1.743c-0.218-0.146-0.291,0-0.362-0.023c0.097-0.098-0.048-0.218-0.194-0.268
	c-1.43,0.122-3.271,0.8-4.846,1.479c-0.074,0.024-0.12,0.048-0.17,0.072c0.05-0.096,0.096-0.217,0.17-0.314
	c0.121-0.267,0.265-0.509,0.387-0.727c0-0.05,0-0.097-0.122-0.05c0.099-0.119,0.22-0.095,0.22-0.119
	c0.022-0.073-0.193-0.291-0.484-0.267c-0.098,0.023-0.22,0.048-0.315,0.121c-0.048-0.146,0.218-0.267,0.025-0.316
	c-0.582-0.12-1.067,0.05-1.382,0.219c-0.024-0.242-0.098-0.459-0.194-0.654c-0.896-1.6-3.368-1.333-4.871-0.969
	c-0.509,0.121-0.993,0.267-1.454,0.461c-0.581,0.217-1.09,0.508-1.502,0.799c-0.363-0.218-1.065-0.267-1.648,0.121
	c-1.018,0.728-2.762,2.81-3.126,4.87c-0.022,0.122-0.048,0.243-0.048,0.363c-0.727,1.212-1.744,2.278-2.544,2.835
	c-0.291,0.219-0.582,0.363-0.8,0.412c-0.582-0.145-0.098-1.792,0.8-3.488c0.896-1.722,2.156-3.491,3.15-3.83
	c0.098-0.702-0.776-1.526-1.406-1.89c-0.242-0.121-0.702-0.291-0.992-0.192c0-0.049,0.072-0.074,0.097-0.074
	c-0.17-0.024-0.461,0.074-0.849,0.218c-0.606,0.242-1.404,0.655-2.352,1.164c-0.653,0.388-1.356,0.8-2.108,1.212
	c-0.266,0.17-0.531,0.314-0.797,0.484l-0.291-0.605c0.459-0.412,0.87-0.849,1.088-1.284c0.122-0.22,0.171-0.411,0.195-0.655
	c0.073-0.193,0.096-0.363,0.073-0.533c-0.025-0.266-0.122-0.436-0.269-0.581c-0.362-0.34-1.017-0.363-1.549-0.315h-0.073
	c-0.437,0.049-0.896,0.195-1.235,0.388c-0.22,0.122-0.438,0.243-0.606,0.389c-0.484,0.387-0.775,0.847-0.897,1.454
	c-0.022,0.146-0.049,0.29-0.049,0.436c0,0.655,0.122,1.309,0.267,1.963c-0.435,0.388-1.501,1.259-2.784,2.181
	c-1.043,0.727-2.206,1.526-3.298,2.108c0-0.007,0.005-0.008,0.007-0.012c-0.009,0.006-0.02,0.012-0.03,0.012
	c-0.363,0.193-0.726,0.387-1.065,0.533c-0.559,0.193-1.213,0.314-1.745,0.267c-0.606-0.073-1.115-0.388-1.211-1.139
	c0-0.146-0.025-0.292-0.025-0.438c0.025-0.145,0.05-0.314,0.073-0.485c0.387-0.047,0.774-0.096,1.163-0.168
	c0.581-0.098,1.163-0.219,1.768-0.388c1.674-0.438,3.248-1.14,4.364-1.914c0.797-0.558,1.356-1.188,1.574-1.795
	c0.218-0.678,0.145-1.356-0.146-1.865c-0.122-0.774-0.679-1.261-1.428-1.478c-1.261-0.388-3.056-0.097-4.218,0.461
	c-0.605,0.29-1.26,0.727-1.914,1.21c-1.6,1.259-3.126,3.007-3.876,4.8c-0.147,0.048-0.317,0.12-0.389,0.193
	c0,0.022,0,0.022-0.024,0.022c-0.024,0.05,0,0.074,0.024,0.074c0.023,0.024,0.023,0.024,0.023,0.024
	c-0.023,0.023,0,0.071-0.023,0.097c0,0.024-0.049,0.048-0.146,0.048c-0.241,0.097-0.145,0.048-0.266,0.074
	c0.097,0.071,0.291,0.144,0.339,0.169c-0.121,0-0.242-0.048-0.29-0.073c-0.024,0-0.17,0.146-0.122,0.195
	c0.025,0.022,0.098,0.07-0.169-0.026c0.072,0.171,0.314,0.243,0.484,0.268c0.023,0-0.098,0.024-0.193-0.024
	c0.048,0.073,0.169,0.096,0.363,0.145c-0.17,0.8-0.219,1.795,0,2.617c0.071,0.291,0.193,0.558,0.34,0.8
	c0.388,0.582,1.016,0.945,2.107,0.97c0.581,0,1.188-0.122,1.817-0.339c2.011-0.679,4.167-2.302,6.132-3.877
	c1.088-0.872,2.107-1.745,3.003-2.399c0.024,0.05,0.024,0.098,0.05,0.145c-0.486,0.34-1.067,0.753-1.625,1.236
	c-0.509,0.438-1.042,0.896-1.428,1.406c-0.39,0.51-0.655,1.09-0.632,1.744c0,0.679,0.268,1.091,0.632,1.357
	c0.17,0.121,0.338,0.218,0.531,0.266c0.413,0.292,0.945,0.437,1.576,0.413c0.459,0,0.92-0.048,1.356-0.17
	c0.702-0.17,1.356-0.486,1.915-0.994c0.313-0.267,0.604-0.63,0.848-1.04c0.605-1.018,0.992-2.885,0.363-4.727
	c0.12-0.073,0.242-0.121,0.338-0.194c0.729-0.362,1.286-0.63,2.108-0.992c0.291-0.122,0.607-0.267,0.97-0.413
	c-0.291,0.363-0.63,0.873-0.97,1.43c-0.822,1.431-1.574,3.32-1.356,5.016c0.025,0.193,0.098,0.339,0.194,0.461
	c0.122,0.629,0.484,1.09,1.162,1.284c0.389,0.097,0.849,0.097,1.454,0c0.291-0.049,0.606-0.146,0.897-0.267
	c0.993-0.389,1.962-1.115,2.762-1.866c0.121,0.363,0.29,0.679,0.51,0.969c-1.066,0.607-2.133,1.261-3.271,1.988
	c-0.146,0.097-0.316,0.193-0.461,0.315c-0.653,0.411-1.283,0.849-1.891,1.309c-0.726,0.557-1.452,1.138-2.108,1.721
	c-0.557,0.508-1.088,1.04-1.549,1.575c-0.849,0.944-1.528,1.938-1.915,2.907c-0.268,0.653-0.411,1.308-0.389,1.938
	c0.025,0.558,0.146,1.067,0.389,1.526c0.387,0.8,1.042,1.478,1.915,1.914c0.048,0.049,0.121,0.074,0.169,0.098
	c0.218,0.169,0.508,0.29,0.872,0.387c0.17,0.073,0.338,0.121,0.508,0.146c0.704,0.146,1.407,0.169,2.108,0.073
	c0.849-0.098,1.649-0.315,2.352-0.605c0.17-0.075,0.315-0.146,0.485-0.219c1.889-0.97,4.021-3.004,6.008-5.356
	c0.825-0.943,1.624-1.961,2.375-3.004c0.68-0.943,1.358-1.939,1.988-2.932c0.629-0.995,1.188-1.915,1.671-2.764
	c1.235-2.106,2.352-4.214,3.394-6.179c0.41-0.145,0.798-0.289,1.139-0.411c0.387-0.146,0.727-0.241,0.993-0.315
	c-0.315,0.291-0.655,0.63-0.993,0.993c-0.922,1.042-1.77,2.398-2.059,3.877c-0.026,0.098-0.026,0.195-0.051,0.292
	c-0.071,0.315-0.097,0.63-0.071,0.896c0.145,1.236,0.872,1.625,2.181,1.26c0.314-0.07,0.654-0.192,1.041-0.361
	c1.283-0.85,3.659-3.369,4.896-3.685c0.338-0.072,0.387,0.073,0.411,0.679c0.097,2.156,1.188,2.98,2.471,3.271
	c0.727,0.145,1.503,0.122,2.205,0.072c0.873-0.047,1.77-0.217,2.546-0.484c4.797-1.575,9.595-4.313,13.229-7.731
	c0.146-0.145,0.29-0.313,0.438-0.531c0.071-0.099,0.12-0.221,0.144-0.315c-0.144,0.29-0.387,0.559-0.509,0.654
	c0.315-0.364,0.461-0.63,0.606-1.018C131.929,378.422,131.783,377.961,131.274,377.452z M82.785,376.798
	c0.146,0.146,0.243,0.314,0.243,0.532c0,0.122,0,0.194-0.048,0.291v-0.242c-0.049-0.194-0.097-0.34-0.195-0.483
	c-0.048-0.098-0.145-0.195-0.218-0.268C82.641,376.678,82.737,376.726,82.785,376.798z M75.857,381.061
	c0.459-0.435,0.797-0.871,1.04-1.306c-0.169,0.484-0.484,0.993-1.04,1.477c-0.947,0.873-2.569,1.696-5.234,2.325
	c-0.341,0.073-0.631,0.146-0.897,0.17c1.697-0.313,3.441-0.944,5.063-1.888C75.202,381.595,75.566,381.329,75.857,381.061z
	 M73.288,377.669c0.412-0.169,0.701-0.193,0.871-0.145c-0.605,0.121-1.357,0.411-2.205,0.945c-0.652,0.412-1.501,1.188-2.229,2.229
	C70.767,379.052,72.221,378.082,73.288,377.669z M69.726,381.013c0.437-0.678,0.968-1.258,1.502-1.695
	c1.14-0.92,2.326-1.331,3.272-1.502c0.071,0.267,0,0.63-0.099,0.897c-0.412,1.33-2.447,3.076-4.676,3.706
	c-0.268,0.073-0.558,0.122-0.849,0.17C69.096,382.031,69.387,381.499,69.726,381.013z M69.726,386.199
	c-0.315,0-0.581-0.047-0.776-0.194c0.219,0.073,0.486,0.122,0.776,0.147c0.241,0,0.509-0.025,0.775-0.05
	C70.21,386.176,69.967,386.199,69.726,386.199z M75.857,387.604c-0.341-0.313-0.463-0.752-0.463-1.162
	c0.024-0.315,0.099-0.607,0.22-0.897c-0.048,0.194-0.073,0.388-0.098,0.582c-0.023,0.508,0.098,0.944,0.341,1.284
	c0.12,0.193,0.266,0.339,0.436,0.484C76.123,387.799,75.978,387.7,75.857,387.604z M78.594,386.976
	c-1.041,0.411-1.623-0.752-1.162-1.819c0.291-0.702,0.823-1.331,1.792-1.986c0.025,0.169,0.073,0.316,0.098,0.486
	c0.12,0.556,0.169,1.113,0.098,1.621c-0.025,0.146-0.05,0.292-0.098,0.462c-0.122,0.484-0.34,0.944-0.654,1.211
	C78.642,386.95,78.619,386.976,78.594,386.976z M79.321,386.345c-0.098,0.169-0.242,0.315-0.389,0.437
	c0.17-0.171,0.291-0.388,0.389-0.582c0.024-0.047,0.048-0.121,0.072-0.169c0.339-1.018,0.267-1.986,0.048-2.933
	C79.806,384.188,79.806,385.522,79.321,386.345z M81.236,378.566c-0.025,0.024-0.025,0.049-0.05,0.072
	c-0.193-0.291-0.267-0.509-0.241-0.678c0.022-0.219,0.169-0.315,0.291-0.315c0.121,0,0.218,0.072,0.266,0.17
	C81.575,377.961,81.575,378.178,81.236,378.566z M84.894,381.741c-0.29,0.654-0.581,1.381-0.822,2.107
	c0.169-0.849,0.46-1.6,0.822-2.302c0.267-0.486,0.534-0.945,0.825-1.357C85.501,380.553,85.21,381.11,84.894,381.741z
	 M87.245,386.49c-0.096,0.049-0.169,0.072-0.243,0.097c0.074-0.048,0.17-0.097,0.243-0.145c0.944-0.607,1.695-1.334,2.447-2.278
	C88.867,385.399,87.924,386.152,87.245,386.49z M95.971,378.861c0.111-0.075,0.237-0.148,0.357-0.223
	c0.679-0.412,1.457-0.606,2.063-0.652c-0.46,0.096-0.99,0.225-1.692,0.613c-0.194,0.096-0.364,0.193-0.534,0.315
	c-0.943,0.631-1.869,1.638-2.328,2.487C94.126,380.723,94.589,379.806,95.971,378.861z M80.798,398.654
	c-0.071-0.679,0.122-1.356,0.438-2.011c0.363-0.776,0.943-1.503,1.549-2.206c0.195-0.218,0.39-0.411,0.582-0.629
	c-0.192,0.243-0.387,0.461-0.582,0.702c-0.653,0.824-1.186,1.672-1.549,2.521C81.018,397.564,80.871,398.098,80.798,398.654z
	 M87.245,401.901c-0.291,0.121-0.557,0.243-0.848,0.34c-0.582,0.193-1.067,0.29-1.504,0.34h-0.168c0.047,0,0.121-0.024,0.168-0.024
	c0.437-0.073,0.873-0.195,1.334-0.365c0.34-0.122,0.679-0.242,1.018-0.412c0.872-0.388,1.695-0.896,2.496-1.478
	C88.94,400.956,88.094,401.514,87.245,401.901z M96.113,388.696c-2.665,4.094-5.572,7.923-8.868,10.2
	c-0.678,0.46-1.382,0.872-2.108,1.187c-0.073,0.05-0.146,0.074-0.243,0.098c-0.701,0.267-1.452,0.34-2.108,0.244
	c-0.531-0.074-1.017-0.268-1.357-0.582c-0.096-0.194-0.144-0.486-0.144-0.898c0.022-1.088,0.461-2.375,1.501-3.853
	c0.534-0.75,1.238-1.551,2.108-2.398c0.679-0.654,1.454-1.332,2.352-2.036c0.461-0.388,0.97-0.748,1.502-1.138
	c0.872-0.654,1.77-1.261,2.666-1.842c1.259,0.824,3.054,0.896,4.7,0.192c0.268-0.096,0.51-0.217,0.75-0.362
	C96.623,387.896,96.381,388.282,96.113,388.696z M96.113,385.859c-0.92,0.51-1.89,0.751-2.494,0.485
	c0.822-0.485,1.67-0.945,2.494-1.38c0.824-0.438,1.648-0.85,2.447-1.238c0.024,0,0.05,0,0.05-0.023
	C98.174,384.454,97.154,385.304,96.113,385.859z M100.113,380.239c-0.072,0.557-0.268,1.139-0.606,1.769
	c-0.026,0.048-0.049,0.097-0.074,0.145c-1.065,0.559-2.179,1.115-3.319,1.696c-1.042,0.534-2.133,1.091-3.246,1.696
	c-0.243-0.363-0.291-0.945-0.146-1.647h0.17c0.023,0,0-0.024,0.023-0.049c0.025,0.024,0.193,0.049,0.315,0.049
	c0.169-0.024,0.315-0.072,0.411-0.12c0.025-0.025-0.096-0.051-0.145-0.195c0.072,0.097,0.241,0.145,0.266,0.121
	c0-0.024-0.071-0.024-0.071-0.073c0.12,0.049,0.193-0.048,0.217-0.073c0.05-0.096-0.289-0.022-0.362-0.387
	c0.121,0.218,0.362,0.243,0.435,0.218c-0.59-0.869,0.365-3.006,2.133-4.216c0.024-0.024,0.073-0.048,0.098-0.071
	c2.061-1.358,3.417-1.432,3.83-0.268c0,0.024,0.022,0.024,0.022,0.049c0.05,0.219,0.073,0.436,0.098,0.678
	C100.161,379.777,100.137,380.021,100.113,380.239z M104.305,382.348c-0.511,0.628-0.97,1.309-1.333,1.938
	c0.436-0.946,0.896-1.648,1.333-2.157c0.484-0.581,0.968-0.944,1.332-1.211C105.177,381.329,104.715,381.839,104.305,382.348z
	 M113.124,388.138c-1.125-0.306-2.084-1.097-2.078-2.972c0.104,1.357,0.703,2.15,1.278,2.534c0.218,0.17,0.509,0.291,0.8,0.365
	c0.605,0.17,1.333,0.243,2.108,0.193C114.578,388.309,113.828,388.309,113.124,388.138z"/>
</svg>
